<svg xmlns="http://www.w3.org/2000/svg" width="14.107" height="16.135" viewBox="0 0 14.107 16.135">
  <g id="bell" transform="translate(-32.181)">
    <g id="Grupo_259" data-name="Grupo 259" transform="translate(37.096)">
      <g id="Grupo_258" data-name="Grupo 258">
        <path id="Caminho_476" data-name="Caminho 476" d="M190.3,0a2.14,2.14,0,0,0-2.138,2.138v.841h1.1V2.138a1.042,1.042,0,0,1,2.083,0v.841h1.1V2.138A2.14,2.14,0,0,0,190.3,0Z" transform="translate(-188.159)" fill="#cbcbcb"/>
      </g>
    </g>
    <g id="Grupo_261" data-name="Grupo 261" transform="translate(33.625 2.065)">
      <g id="Grupo_260" data-name="Grupo 260" transform="translate(0)">
        <path id="Caminho_477" data-name="Caminho 477" d="M83.6,65.522a5.644,5.644,0,0,0-5.61,5.665v3h1.1v-3a4.514,4.514,0,1,1,9.027,0v3h1.1v-3A5.644,5.644,0,0,0,83.6,65.522Z" transform="translate(-77.989 -65.522)" fill="#cbcbcb"/>
      </g>
    </g>
    <g id="Grupo_263" data-name="Grupo 263" transform="translate(36.603 13.54)">
      <g id="Grupo_262" data-name="Grupo 262" transform="translate(0)">
        <path id="Caminho_478" data-name="Caminho 478" d="M176.632,429.663a1.5,1.5,0,0,1-1.5,1.5H175.1a1.5,1.5,0,0,1-1.5-1.5h-1.1a2.6,2.6,0,0,0,2.595,2.595h.037a2.6,2.6,0,0,0,2.595-2.595Z" transform="translate(-172.502 -429.663)" fill="#cbcbcb"/>
      </g>
    </g>
    <g id="Grupo_265" data-name="Grupo 265" transform="translate(32.181 10.215)">
      <g id="Grupo_264" data-name="Grupo 264" transform="translate(0)">
        <path id="Caminho_479" data-name="Caminho 479" d="M44.314,324.131H34.154a1.973,1.973,0,1,0,0,3.947h10.16a1.973,1.973,0,0,0,0-3.947Zm0,2.851H34.154a.877.877,0,1,1,0-1.754h10.16a.876.876,0,0,1,.877.864A.889.889,0,0,1,44.314,326.982Z" transform="translate(-32.181 -324.131)" fill="#cbcbcb"/>
      </g>
    </g>
  </g>
</svg>
