<svg xmlns="http://www.w3.org/2000/svg" width="61.976" height="54.846" viewBox="0 0 61.976 54.846">
  <g id="Grupo_84" data-name="Grupo 84" transform="translate(1 1)">
    <rect id="Ret창ngulo_77" data-name="Ret창ngulo 77" width="4.161" height="6.761" rx="0.75" transform="translate(13.465 25.746)" fill="none" stroke="#cbcbcb" stroke-linecap="round" stroke-linejoin="round" stroke-width="2"/>
    <rect id="Ret창ngulo_78" data-name="Ret창ngulo 78" width="4.161" height="13.522" rx="0.75" transform="translate(21.266 18.985)" fill="none" stroke="#cbcbcb" stroke-linecap="round" stroke-linejoin="round" stroke-width="2"/>
    <path id="Caminho_249" data-name="Caminho 249" d="M112.468,206.642h-2.135a.562.562,0,0,1-.562-.562V196.8a.562.562,0,0,1,.562-.562h3.036a.562.562,0,0,1,.562.562v7.169" transform="translate(-80.705 -174.135)" fill="none" stroke="#cbcbcb" stroke-linecap="round" stroke-linejoin="round" stroke-width="2"/>
    <path id="Caminho_250" data-name="Caminho 250" d="M120.177,198.047V187.785a.562.562,0,0,1,.562-.562h3.036a.562.562,0,0,1,.562.562v8.224" transform="translate(-83.309 -171.878)" fill="none" stroke="#cbcbcb" stroke-linecap="round" stroke-linejoin="round" stroke-width="2"/>
    <ellipse id="Elipse_11" data-name="Elipse 11" cx="14.673" cy="14.673" rx="14.673" ry="14.673" transform="translate(30.629 23.499)" fill="none" stroke="#cbcbcb" stroke-linecap="round" stroke-linejoin="round" stroke-width="2"/>
    <path id="Caminho_251" data-name="Caminho 251" d="M135.608,211.337l-8.936,8.936-4.513-4.513-3.719,3.719" transform="translate(-82.874 -177.914)" fill="none" stroke="#cbcbcb" stroke-linecap="round" stroke-linejoin="round" stroke-width="2"/>
    <path id="Caminho_252" data-name="Caminho 252" d="M139.619,216.494v-5.157h-5.157" transform="translate(-86.885 -177.914)" fill="none" stroke="#cbcbcb" stroke-linecap="round" stroke-linejoin="round" stroke-width="2"/>
    <path id="Caminho_253" data-name="Caminho 253" d="M127.871,188.293a21.873,21.873,0,0,0-25.731-16.578" transform="translate(-78.794 -167.884)" fill="none" stroke="#cbcbcb" stroke-linecap="round" stroke-linejoin="round" stroke-width="2"/>
    <path id="Caminho_254" data-name="Caminho 254" d="M78.976,197.971q-.074.9-.075,1.823a21.844,21.844,0,0,0,21.843,21.843q.653,0,1.3-.038" transform="translate(-72.978 -174.568)" fill="none" stroke="#cbcbcb" stroke-linecap="round" stroke-linejoin="round" stroke-width="2"/>
    <path id="Caminho_255" data-name="Caminho 255" d="M91.386,176.218c.018.245.027.493.027.743a10.207,10.207,0,1,1-3.591-7.772" transform="translate(-71 -166.755)" fill="none" stroke="#cbcbcb" stroke-linecap="round" stroke-linejoin="round" stroke-width="2"/>
    <path id="Caminho_256" data-name="Caminho 256" d="M78.242,178.033l4.893,4.893,8.914-8.914" transform="translate(-72.813 -168.571)" fill="none" stroke="#cbcbcb" stroke-linecap="round" stroke-linejoin="round" stroke-width="2"/>
  </g>
</svg>
