<svg xmlns="http://www.w3.org/2000/svg" width="19.668" height="19.668" viewBox="0 0 19.668 19.668">
  <g id="chat_4_" data-name="chat (4)" transform="translate(0.25 0.25)">
    <g id="Grupo_338" data-name="Grupo 338">
      <g id="Grupo_337" data-name="Grupo 337">
        <path id="Caminho_498" data-name="Caminho 498" d="M13.178,0H2.4A2.4,2.4,0,0,0,0,2.4v11.98a.6.6,0,0,0,.345.543.608.608,0,0,0,.254.056.6.6,0,0,0,.383-.139L4.41,11.98h8.768a2.4,2.4,0,0,0,2.4-2.4V2.4A2.4,2.4,0,0,0,13.178,0Zm1.2,9.584a1.2,1.2,0,0,1-1.2,1.2H4.193a.6.6,0,0,0-.383.139L1.2,13.1V2.4A1.2,1.2,0,0,1,2.4,1.2H13.178a1.2,1.2,0,0,1,1.2,1.2Z" fill="#178a5f" stroke="#178a5f" stroke-width="0.5"/>
      </g>
    </g>
    <g id="Grupo_340" data-name="Grupo 340" transform="translate(4.792 4.792)">
      <g id="Grupo_339" data-name="Grupo 339">
        <path id="Caminho_499" data-name="Caminho 499" d="M139.98,128a.6.6,0,1,0,0,1.2,1.2,1.2,0,0,1,1.2,1.2V140.53l-2.022-1.617a.6.6,0,0,0-.374-.131H130.4a1.2,1.2,0,0,1-1.2-1.2v-.6a.6.6,0,1,0-1.2,0v.6a2.4,2.4,0,0,0,2.4,2.4h8.175l2.831,2.265a.6.6,0,0,0,.974-.468V130.4A2.4,2.4,0,0,0,139.98,128Z" transform="translate(-128 -128)" fill="#178a5f" stroke="#178a5f" stroke-width="0.5"/>
      </g>
    </g>
  </g>
</svg>
