<svg xmlns="http://www.w3.org/2000/svg" width="129.678" height="129.605" viewBox="0 0 129.678 129.605"><path d="M144.2,84.257c0,.413-46.416.15-46.427.559s46.339,2.853,46.316,3.262-46.344-2.567-46.381-2.163S143.8,91.489,143.75,91.9,97.637,86.6,97.577,87s45.68,8.295,45.609,8.7-45.715-8.029-45.8-7.628,45.106,11,45.01,11.4S97.241,88.729,97.133,89.125,141.5,102.8,141.386,103.19,96.95,89.771,96.817,90.158s43.474,16.3,43.331,16.683S96.6,90.792,96.441,91.173s42.423,18.861,42.257,19.237S96.18,91.794,96,92.165s41.225,21.355,41.04,21.721S95.7,92.772,95.506,93.131s39.884,23.765,39.675,24.123S95.17,93.723,94.954,94.073s38.405,26.086,38.176,26.427S94.578,94.643,94.338,94.978s36.8,28.31,36.55,28.636S93.931,95.53,93.671,95.85s35.065,30.431,34.8,30.743S93.23,96.379,92.958,96.681s33.211,32.441,32.925,32.739-33.4-32.236-33.69-31.942,31.242,34.343,30.944,34.62S91.693,97.951,91.385,98.22s29.155,36.113,28.836,36.376-29.372-35.935-29.7-35.69,26.984,37.781,26.65,38.021-27.2-37.612-27.543-37.38,24.7,39.309,24.356,39.528S89.065,99.921,88.71,100.13s22.333,40.7,21.972,40.9-22.559-40.565-22.925-40.377,19.876,41.959,19.508,42.135-20.112-41.834-20.488-41.668,17.342,43.067,16.961,43.223S86.16,101.393,85.774,101.531s14.742,44.025,14.352,44.156-14.988-43.93-15.377-43.81S96.837,146.7,96.44,146.81s-12.333-44.752-12.734-44.649,9.391,45.467,8.984,45.552-9.638-45.4-10.047-45.323,6.671,45.938,6.264,46-6.929-45.9-7.338-45.848,3.935,46.264,3.524,46.3-4.207-46.224-4.612-46.2,1.209,46.416.8,46.416-1.5-46.391-1.91-46.391-1.5,46.4-1.908,46.391,1.2-46.4.8-46.416-4.219,46.238-4.628,46.2,3.933-46.249,3.525-46.3-6.934,45.917-7.34,45.847,6.665-45.933,6.26-46-9.649,45.418-10.05,45.331,9.388-45.456,8.984-45.552-12.326,44.749-12.73,44.641S74.36,102,73.967,101.877s-14.989,43.935-15.379,43.809,14.738-44.012,14.356-44.155S55.359,144.5,54.975,144.343s17.342-43.053,16.969-43.22-20.122,41.842-20.493,41.666,19.879-41.946,19.51-42.133S48.39,141.227,48.039,141.029s22.321-40.691,21.968-40.9S45.07,139.291,44.72,139.071s24.705-39.3,24.364-39.527-27.211,37.617-27.545,37.377S68.52,99.154,68.194,98.9s-29.385,35.953-29.7,35.694S67.654,98.48,67.337,98.212s-31.443,34.151-31.751,33.873S66.825,97.756,66.531,97.47s-33.408,32.24-33.7,31.942S66.041,96.971,65.764,96.676,30.516,126.9,30.246,126.585,65.3,96.167,65.047,95.848s-36.971,28.087-37.219,27.76,36.792-28.3,36.552-28.631-38.562,25.856-38.791,25.515,38.4-26.074,38.179-26.419S23.75,117.6,23.534,117.244,63.411,93.491,63.212,93.13s-41.348,21.115-41.536,20.749S62.892,92.534,62.714,92.163s-42.531,18.618-42.7,18.242S62.44,91.552,62.273,91.171s-43.561,16.044-43.7,15.663S62.032,90.548,61.9,90.158s-44.446,13.421-44.566,13.026S61.694,89.521,61.588,89.123,16.418,99.867,16.322,99.468s45.095-10.993,45.01-11.4S15.6,96.1,15.531,95.7,61.2,87.418,61.14,87,15.017,92.3,14.969,91.9s46.08-5.568,46.046-5.974-46.359,2.565-46.384,2.163,46.329-2.851,46.318-3.264-46.429-.155-46.429-.562,46.416-.148,46.429-.557-46.341-2.858-46.318-3.269S60.977,83,61.016,82.594,14.933,77.02,14.973,76.6,61.084,81.9,61.144,81.5,15.46,73.209,15.531,72.8s45.717,8.03,45.8,7.626-45.106-11-45.01-11.4S61.478,79.777,61.586,79.381,17.217,65.709,17.333,65.317,61.766,78.736,61.9,78.346s-43.471-16.3-43.326-16.681S62.124,77.713,62.278,77.333,19.854,58.471,20.02,58.095s42.518,18.616,42.7,18.245S21.491,54.987,21.679,54.621,63.012,75.733,63.213,75.373,23.329,51.608,23.539,51.256s40.011,23.527,40.23,23.186S25.362,48.349,25.592,48.008s38.55,25.853,38.79,25.52-36.8-28.31-36.549-28.638S64.789,72.976,65.047,72.657s-35.063-30.431-34.8-30.743S65.487,72.128,65.765,71.823,32.556,39.382,32.842,39.084s33.394,32.236,33.69,31.942S35.289,36.684,35.588,36.406,67.031,70.561,67.337,70.293,38.177,34.168,38.5,33.909,67.868,69.844,68.2,69.6,41.218,31.819,41.551,31.578,68.75,69.19,69.091,68.96,44.379,29.651,44.728,29.43,69.655,68.586,70.016,68.376s-22.339-40.7-21.977-40.9S70.6,68.037,70.963,67.849s-19.876-41.957-19.5-42.135S71.565,67.548,71.942,67.381,54.6,24.315,54.982,24.16,72.56,67.122,72.946,66.975,58.2,22.95,58.593,22.817,73.574,66.749,73.969,66.623,61.881,21.8,62.278,21.694,74.611,66.446,75.012,66.345s-9.391-45.472-8.987-45.552,9.649,45.4,10.048,45.329S69.4,20.175,69.811,20.115s6.931,45.895,7.342,45.842-3.938-46.249-3.527-46.291,4.209,46.224,4.62,46.2-1.209-46.416-.8-46.416,1.5,46.392,1.91,46.392,1.5-46.4,1.91-46.392-1.206,46.392-.789,46.416,4.212-46.236,4.62-46.2-3.931,46.249-3.524,46.3S88.5,20.056,88.908,20.115,82.242,66.05,82.643,66.124,92.292,20.706,92.7,20.793s-9.39,45.456-8.99,45.552S96.047,21.586,96.451,21.694,84.358,66.51,84.751,66.623s14.991-43.935,15.38-43.8S85.39,66.832,85.776,66.975s17.586-42.969,17.967-42.814S86.4,67.217,86.774,67.383,106.9,25.539,107.265,25.717,87.393,67.662,87.759,67.85s22.571-40.573,22.93-40.373-22.331,40.691-21.977,40.9S113.648,29.216,114,29.435,89.3,68.731,89.63,68.962s27.216-37.618,27.548-37.379S90.2,69.351,90.525,69.6s29.383-35.946,29.7-35.687S91.066,70.025,91.377,70.293s31.443-34.151,31.754-33.873S91.893,70.75,92.187,71.036s33.408-32.241,33.694-31.942-33.2,32.428-32.924,32.731S128.2,41.608,128.471,41.919s-35.058,30.42-34.8,30.739S130.641,44.571,130.889,44.9,94.1,73.2,94.338,73.53,132.9,47.674,133.131,48.015s-38.4,26.074-38.177,26.427,40.021-23.536,40.23-23.181S95.308,75.016,95.506,75.383s41.35-21.122,41.538-20.756S95.827,75.971,96,76.342s42.538-18.618,42.7-18.24S96.285,76.952,96.451,77.335,140.017,61.284,140.16,61.67,96.7,77.957,96.829,78.348s44.444-13.422,44.566-13.028S97.035,78.984,97.142,79.381s45.168-10.744,45.264-10.343S97.3,80.03,97.386,80.431s45.729-8.034,45.8-7.628S97.518,81.1,97.577,81.5s46.121-5.3,46.173-4.9-46.083,5.57-46.045,5.989,46.357-2.572,46.381-2.163-46.328,2.85-46.316,3.262S144.2,83.84,144.2,84.257Z" transform="translate(-14.52 -19.45)" fill="#ffc431"/></svg>