<svg xmlns="http://www.w3.org/2000/svg" width="86.016" height="17.646" viewBox="0 0 86.016 17.646"><g transform="translate(-28.087 -22.323)"><path d="M28.929,23a.839.839,0,0,0-.6.235.737.737,0,0,0-.24.568V39.723a.741.741,0,0,0,.243.561.835.835,0,0,0,1.184,0,.755.755,0,0,0,.238-.565V23.794a.749.749,0,0,0-.235-.572A.8.8,0,0,0,28.929,23Z" transform="translate(0 -0.569)"/><path d="M69.011,39.23H63.182a1.388,1.388,0,0,1-1.37-1.369V23.567a.562.562,0,0,0-.171-.441.651.651,0,0,0-.467-.17h-.349a.645.645,0,0,0-.467.171.558.558,0,0,0-.173.439V39.842a.589.589,0,0,0,.182.449.606.606,0,0,0,.456.182h8.187a.607.607,0,0,0,.445-.185.581.581,0,0,0,.185-.445.562.562,0,0,0-.185-.427A.609.609,0,0,0,69.011,39.23Z" transform="translate(-27.097 -0.534)"/><path d="M155.495,36.271a10.4,10.4,0,0,0,.5-3.426V23.5a.732.732,0,0,0-.24-.545.8.8,0,0,0-1.152,0,.74.74,0,0,0-.234.548v9.484a9.983,9.983,0,0,1-.322,2.688,5.335,5.335,0,0,1-.942,1.92,3.853,3.853,0,0,1-1.521,1.149,5.106,5.106,0,0,1-3.769,0,3.831,3.831,0,0,1-1.481-1.137,5.581,5.581,0,0,1-.961-1.915,9.518,9.518,0,0,1-.343-2.713V23.5a.769.769,0,0,0-.226-.553.79.79,0,0,0-1.117,0,.779.779,0,0,0-.226.554v9.444a10.972,10.972,0,0,0,.467,3.426,6.178,6.178,0,0,0,1.269,2.25,4.745,4.745,0,0,0,1.9,1.246,7.93,7.93,0,0,0,5.03-.02,5.222,5.222,0,0,0,2.017-1.294A6.215,6.215,0,0,0,155.495,36.271Z" transform="translate(-97.405 -0.329)"/><path d="M261.7,23.283a.657.657,0,0,0-.5-.206h-1.173a.643.643,0,0,0-.4.137.883.883,0,0,0-.293.4l-2.264,4.72-2.58,5.634v.29l-.414.037a.413.413,0,0,1-.413-.3q-.444-1.014-.677-1.574t-.354-.821c-.073-.165-.121-.273-.146-.322-.037-.089-.087-.2-.156-.371l-1.089-2.454-2.247-4.828a.914.914,0,0,0-.3-.406.7.7,0,0,0-.439-.137h-1.174a.607.607,0,0,0-.467.2.839.839,0,0,0-.238.5l-1.134,16a.7.7,0,0,0,.2.576.758.758,0,0,0,1.075.042.607.607,0,0,0,.2-.467l.467-6.835c.037-.662.073-1.35.106-2.06s.061-1.411.086-2.1l.078-2.024q.037-.981.076-1.83l.017-.354h.6l.156.226,4.772,11.234a.86.86,0,0,0,.3.385.705.705,0,0,0,.436.14h.192a.791.791,0,0,0,.45-.131.547.547,0,0,0,.234-.311l3.714-7.769c.254-.581.438-1,.547-1.235s.156-.352.178-.4l.325.065-.3-.156.034-.07c.03-.061.1-.212.2-.452s.3-.693.581-1.316l.1-.216h.607l.036.229.045.042v.165c-.012.561-.012,1.16,0,1.8s.034,1.3.067,1.972l.1,2.024q.048,1.015.106,1.956l.424,6.983a.623.623,0,0,0,.2.494.691.691,0,0,0,.506.2h.076a.7.7,0,0,0,.539-.23.663.663,0,0,0,.188-.544l-1-16a.849.849,0,0,0-.24-.526Z" transform="translate(-183.326 -0.636)"/><path d="M382.84,23a.843.843,0,0,0-.6.235.737.737,0,0,0-.238.562V39.722a.748.748,0,0,0,.243.562.835.835,0,0,0,1.184,0,.755.755,0,0,0,.238-.565V23.794a.752.752,0,0,0-.234-.572A.807.807,0,0,0,382.84,23Z" transform="translate(-298.796 -0.569)"/><path d="M426.359,23.5a.659.659,0,0,0-.21.491l.273,14.083-.112.17-.335.332-.293-.366-8.765-14.6a.627.627,0,0,0-.623-.322h-.808a.723.723,0,0,0-.531.213.651.651,0,0,0-.215.494V39.958a.732.732,0,0,0,1.246.531.718.718,0,0,0,.212-.531l-.176-14.346.285-.156.126-.02a.416.416,0,0,1,.4.262l8.822,14.653a.587.587,0,0,0,.243.269.719.719,0,0,0,.344.09h.674a.748.748,0,0,0,.744-.746V23.991a.646.646,0,0,0-.215-.494.779.779,0,0,0-1.089,0Z" transform="translate(-326.439 -0.804)"/><path d="M527.788,38.7h-6a1.289,1.289,0,0,1-1.331-1.333V32.674a1.291,1.291,0,0,1,1.331-1.335h5.175a.606.606,0,0,0,.445-.19.565.565,0,0,0,.185-.436.583.583,0,0,0-.19-.434.6.6,0,0,0-.441-.187h-5.175a1.3,1.3,0,0,1-.955-.378,1.282,1.282,0,0,1-.377-.934V24.9a1.291,1.291,0,0,1,1.331-1.335h5.578a.623.623,0,0,0,.631-.623.556.556,0,0,0-.17-.452.639.639,0,0,0-.467-.17h-7.942a.557.557,0,0,0-.592.592v16.43a.584.584,0,0,0,.17.42.539.539,0,0,0,.422.171h8.369a.612.612,0,0,0,.445-.184.529.529,0,0,0,.185-.4.609.609,0,0,0-.188-.467A.6.6,0,0,0,527.788,38.7Z" transform="translate(-414.313)"/></g></svg>