<svg xmlns="http://www.w3.org/2000/svg" width="64.4" height="37.542" viewBox="0 0 64.4 37.542">
  <g id="Grupo_82" data-name="Grupo 82" transform="translate(1 1)">
    <path id="Caminho_241" data-name="Caminho 241" d="M197.677,207.133V180.787a4.57,4.57,0,0,1,4.569-4.57h41.285a4.57,4.57,0,0,1,4.57,4.57v26.346" transform="translate(-191.689 -176.217)" fill="none" stroke="#cbcbcb" stroke-linecap="round" stroke-linejoin="round" stroke-width="2"/>
    <path id="Caminho_242" data-name="Caminho 242" d="M190.431,215.853h61.538a.432.432,0,0,1,.431.431v1.223a2.972,2.972,0,0,1-2.972,2.971H192.972A2.972,2.972,0,0,1,190,217.507v-1.223A.431.431,0,0,1,190.431,215.853Z" transform="translate(-190 -184.937)" fill="none" stroke="#cbcbcb" stroke-linecap="round" stroke-linejoin="round" stroke-width="2"/>
    <line id="Linha_5" data-name="Linha 5" x2="1.891" transform="translate(30.255 3.095)" fill="none" stroke="#cbcbcb" stroke-linecap="round" stroke-linejoin="round" stroke-width="2"/>
    <line id="Linha_6" data-name="Linha 6" x2="50.424" transform="translate(5.988 6.057)" fill="none" stroke="#cbcbcb" stroke-linecap="round" stroke-linejoin="round" stroke-width="2"/>
    <rect id="Retângulo_76" data-name="Retângulo 76" width="6.24" height="4.68" transform="translate(17.94 21.671)" fill="none" stroke="#cbcbcb" stroke-linecap="round" stroke-linejoin="round" stroke-width="2"/>
    <line id="Linha_7" data-name="Linha 7" x2="16.137" transform="translate(29.762 11.531)" fill="none" stroke="#cbcbcb" stroke-linecap="round" stroke-linejoin="round" stroke-width="2"/>
    <line id="Linha_8" data-name="Linha 8" x2="13.918" transform="translate(29.762 16.211)" fill="none" stroke="#cbcbcb" stroke-linecap="round" stroke-linejoin="round" stroke-width="2"/>
    <line id="Linha_9" data-name="Linha 9" x2="16.137" transform="translate(29.762 21.671)" fill="none" stroke="#cbcbcb" stroke-linecap="round" stroke-linejoin="round" stroke-width="2"/>
    <line id="Linha_10" data-name="Linha 10" x2="7.557" transform="translate(29.762 26.351)" fill="none" stroke="#cbcbcb" stroke-linecap="round" stroke-linejoin="round" stroke-width="2"/>
    <path id="Caminho_243" data-name="Caminho 243" d="M211.833,192.082l3.263,3.268,4.668-4.668" transform="translate(-194.803 -179.399)" fill="none" stroke="#cbcbcb" stroke-linecap="round" stroke-linejoin="round" stroke-width="2"/>
  </g>
</svg>
