<svg xmlns="http://www.w3.org/2000/svg" width="581.292" height="86.24" viewBox="0 0 581.292 86.24">
  <g id="Grupo_277" data-name="Grupo 277" transform="translate(-101.792 -1686.5)">
    <path id="Caminho_134" data-name="Caminho 134" d="M2636.136,312.758a1.642,1.642,0,0,0-.1.7,2.007,2.007,0,0,1-.025.565,19.438,19.438,0,0,0-.735,4.594q-.084,2.311-.183,4.567a1.322,1.322,0,0,1-.075,1.023,3.752,3.752,0,0,0-.585,2.1,18.3,18.3,0,0,1-.034,2.074c-.052.387-.1.714-.141.985s-.1.565-.17.879a2.4,2.4,0,0,1-2.276,2.027,2.282,2.282,0,0,1-2.578-1.8l-.158-.63a2.058,2.058,0,0,1-1.289-.679q-.474-.55-.974-1.2-1.266-1.911-2.479-3.838a43.127,43.127,0,0,0-2.688-3.785,13.417,13.417,0,0,1-1.58-2.055,22.287,22.287,0,0,0-1.476-2.083,3.122,3.122,0,0,1-.461-.5,3.373,3.373,0,0,0-.461-.5c.035.437.062.84.083,1.207a5.973,5.973,0,0,0,.187,1.18q.457,4.015.994,7.9t1.071,7.765a10.117,10.117,0,0,0,.414,2.3,17.318,17.318,0,0,1,.519,2.269,3.869,3.869,0,0,0,0,1.116,4.075,4.075,0,0,1,0,1.115,2.213,2.213,0,0,1-1.216,2.037,2.664,2.664,0,0,1-2.4-.006,1.764,1.764,0,0,0-1.235-.469,2.142,2.142,0,0,1-2.262-1.883q-.322-2.15-.615-4.2t-.616-4.2q-.458-3.567-.965-7.123t-1.1-7.2q-.379-3.7-.952-7.294a41.139,41.139,0,0,1-.507-7.295,2.824,2.824,0,0,0-.532-2.1,1.988,1.988,0,0,1-.263-.38,2.185,2.185,0,0,1-.185-.511,1.387,1.387,0,0,1,.545-1.813,1.339,1.339,0,0,1,1.785-.005,2.957,2.957,0,0,0,.946.653,11.053,11.053,0,0,0,1.1.39l.263.157a3.8,3.8,0,0,0,2.391,1.07,1.194,1.194,0,0,1,.553.418q.315.367.473.55a5.23,5.23,0,0,1,.665,3.069,2.7,2.7,0,0,0,.266,1.049q1.765,2.567,3.584,5.12t3.611,5.226c.227.315.5.654.817,1.021a7.546,7.546,0,0,1,.9,1.335,3.442,3.442,0,0,1,.117-.42.681.681,0,0,0,.012-.393q.25-3.412.676-6.812t1.018-6.787q.463-3.019.849-5.908t.849-5.907a6.049,6.049,0,0,1,.232-1.51,6.229,6.229,0,0,0,.231-1.51,2.089,2.089,0,0,1,.836-1.1,1.1,1.1,0,0,1,1.234.023q.762.366,1.538.783a2.415,2.415,0,0,1,1.119,1.335.977.977,0,0,1,.21.169.767.767,0,0,0,.21.17,3.019,3.019,0,0,1,1.487,1.243,6.657,6.657,0,0,1,.726,1.769,19.034,19.034,0,0,1,.663,2.4,18.611,18.611,0,0,0,.663,2.4q.555,1.759,1.231,3.539t1.362,3.618q1.478,3.644,2.973,7.34t3.132,7.524q.686,1.836,1.533,3.63t1.559,3.735q.819,1.915,1.73,3.749t1.73,3.748a2.788,2.788,0,0,1,.136,1.639,2.188,2.188,0,0,1-.941,1.355,3.1,3.1,0,0,1-1.573.4,2.411,2.411,0,0,1-1.5-.626,1.9,1.9,0,0,1-.291-.485,2.029,2.029,0,0,0-.289-.485.775.775,0,0,1-.211-.169.972.972,0,0,0-.21-.17,2.2,2.2,0,0,1-1.812-.768,10.72,10.72,0,0,1-1-1.533q-.633-1.179-1.241-2.477t-1.135-2.5q-1.217-3.04-2.576-5.989T2638.3,316.9q-.505-1.1-.978-2.1t-.95-1.992A.3.3,0,0,1,2636.136,312.758Z" transform="translate(-2506.151 1430.376)" fill="#484444"/>
    <path id="Caminho_135" data-name="Caminho 135" d="M2671.687,325.731c-.086-.424-.194-.862-.323-1.315s-.235-.89-.321-1.314q-.343-1.144-.589-2.089t-.482-2.111a27.1,27.1,0,0,0-1.156-4.072q-.726-1.948-1.346-3.922a1.487,1.487,0,0,1-.236-.615,1.966,1.966,0,0,0-.914-1.25,3.031,3.031,0,0,1-1.32-1.61,2.069,2.069,0,0,1,.079-2.335,2.67,2.67,0,0,1,.307-.393,2.449,2.449,0,0,0,.306-.393q-1.413-5.344-3.188-10.836l-.636.128a3.452,3.452,0,0,1-2.1-1.119,3.852,3.852,0,0,1-1.2-2.13,3.747,3.747,0,0,1,1.065-2.369,1.319,1.319,0,0,1,.486-.6c.227-.156.467-.332.721-.533a1.655,1.655,0,0,0,.505-1.317q.062-.784.124-1.57t.1-1.677a1.8,1.8,0,0,1,1.332-1.6,2.1,2.1,0,0,1,2.081.462,4.073,4.073,0,0,1,.862.985,3.155,3.155,0,0,1,.4,1.41l.193.955a4.75,4.75,0,0,1,.827-.278l.742-.15a25.768,25.768,0,0,1,3.583-1.112q1.845-.428,3.84-.944,1.866-.6,3.721-1.251t3.637-1.122q1.145-.341,2.247-.621t2.27-.515a2.005,2.005,0,0,1,1.625.388,2.269,2.269,0,0,1,.948,1.408,2.142,2.142,0,0,1-1.649,2.763,7.492,7.492,0,0,1-1.2.353,7.751,7.751,0,0,0-1.2.353c-.282.058-.453.13-.508.214a3.418,3.418,0,0,1-.973,1.466,8.463,8.463,0,0,1-1.208.852q-1.483.853-2.945,1.535a30.579,30.579,0,0,0-2.84,1.513q-.594.344-1,.533-1.738.684-3.583,1.389T2669.1,292.8q.6,2.421,1.094,4.858t.988,4.879a2.5,2.5,0,0,0,.466-.15,2.291,2.291,0,0,1,.361-.128,26.257,26.257,0,0,1,6.888-3.6c.748-.3,1.428-.583,2.034-.854s1.252-.547,1.929-.833a20.612,20.612,0,0,1,3.648-1.07,2.1,2.1,0,0,1,2.21,1.1,6.918,6.918,0,0,1,.725,1.4,1.307,1.307,0,0,1,.034.986,3.8,3.8,0,0,1-.348.733,4.033,4.033,0,0,1-.327.839,3.876,3.876,0,0,0-.326.839c-.211.413-.385.741-.518.988a1.992,1.992,0,0,1-.794.713q-2.058.747-3.869,1.612t-3.848,1.717a14.547,14.547,0,0,1-3.138,1.132q-1.635.389-3.1.793l-.636.129q.107.532.172,1.124c.043.4.1.772.173,1.124q.365,1.806.752,3.713t.857,3.69a11.459,11.459,0,0,0,.663,2.184q.426,1.019.875,2.142a1.724,1.724,0,0,0,.139.414,2.3,2.3,0,0,1,.16.519c.353-.071.559-.149.615-.235q2.607-1.3,4.981-2.665t4.959-2.771q1.017-.425,2.088-.865t2.195-.886a4.007,4.007,0,0,1,1.686-.4,5.041,5.041,0,0,1,1.837.346q1.8.189,1.7,2.415a2.484,2.484,0,0,0,.152,1.294,1.981,1.981,0,0,1,.183,1.453,3.959,3.959,0,0,1-.729,1.307,13.9,13.9,0,0,1-3.315,2.439q-1.749.907-3.549,1.823-2.334,1.027-4.76,1.848t-5.036,1.572a2.214,2.214,0,0,1-.668.246,2.221,2.221,0,0,0-.669.246,1.654,1.654,0,0,0-.083.679,1.944,1.944,0,0,1-1.46,1.51,2.036,2.036,0,0,1-2.017-.695,2.691,2.691,0,0,1-.234-.34,3.631,3.631,0,0,0-.235-.339.287.287,0,0,0-.383-.253,2.862,2.862,0,0,1-1.253-.464c-.382-.254-.745-.492-1.084-.719a2.255,2.255,0,0,1-1.086-1.823,2.49,2.49,0,0,1,.759-1.975l.381-.3A1.236,1.236,0,0,0,2671.687,325.731Z" transform="translate(-2514.308 1431.772)" fill="#484444"/>
    <path id="Caminho_136" data-name="Caminho 136" d="M2727.509,303.433q-.081-1.85-.292-3.515t-.4-3.5q-.166-2.383-.224-4.786a41.245,41.245,0,0,1,.187-4.963,13.85,13.85,0,0,0,.022-2.579,16.406,16.406,0,0,0-.422-2.618,6.84,6.84,0,0,1,.013-2.3,18.245,18.245,0,0,1,.564-2.282,2.7,2.7,0,0,1,1.556-1.567,3.56,3.56,0,0,1,2.438-.174q2.079.652,1.833,3.212a29.07,29.07,0,0,0,.116,8.2q.533,3.313.89,6.543t.785,6.559q.326,2.031.653,4.06t.548,4.077q.323,2.689.594,5.385a20.594,20.594,0,0,1-.171,5.4c.023.143.05.3.078.481a1.085,1.085,0,0,1-.029.5,2.745,2.745,0,0,1-1.686,2.464,2.705,2.705,0,0,1-2.808-.424,14.873,14.873,0,0,1-1.2-.958,3.638,3.638,0,0,1-.927-1.33,17.843,17.843,0,0,0-2.483-3.162q-1.444-1.465-2.875-2.879-2.089-2.074-3.955-4.131a37.926,37.926,0,0,1-3.454-4.43q-.707-.98-1.306-1.981t-1.306-1.982c-.094-.13-.166-.228-.212-.294a3.3,3.3,0,0,1-.228-.4c-.05.155-.085.271-.109.346a.722.722,0,0,0,0,.329q.077,1.853.149,3.648t.149,3.648a28.657,28.657,0,0,0,1.12,6.944q.454,1.463.8,2.939a11.328,11.328,0,0,0,1.124,2.888q.475.91-.562,1.954a2.269,2.269,0,0,1-.98.377,1.081,1.081,0,0,1-.977-.281,3.057,3.057,0,0,0-1.864-.686,2.152,2.152,0,0,1-2.092-1.417,5.4,5.4,0,0,1-.782-1.792,11.013,11.013,0,0,1-.249-1.878q-.136-1.511-.2-2.928a25.365,25.365,0,0,0-.3-2.91,32.189,32.189,0,0,0-.685-3.233q-.409-1.521-.882-3.091a83.362,83.362,0,0,1-1.912-11.858q-.149-2.277-.4-4.539t-.42-4.645a4.5,4.5,0,0,1,.161-1.725,2.176,2.176,0,0,1,1.135-1.115,1.874,1.874,0,0,0,.536-.415,5.986,5.986,0,0,0,.412-.5,2.393,2.393,0,0,1,2.282-.806,2.086,2.086,0,0,1,1.771,1.468,13.6,13.6,0,0,0,1.532,3.042q.935,1.387,1.835,2.883,1.536,2.055,2.967,4.125t2.949,4.018q1.13,1.573,2.413,3.064t2.608,2.923a9.755,9.755,0,0,0,.936,1.384c.318.387.659.808,1.025,1.259Z" transform="translate(-2521.748 1432.33)" fill="#484444"/>
    <path id="Caminho_137" data-name="Caminho 137" d="M2755.6,277.758l-.7.087a2.18,2.18,0,0,1-.711-.02c-.367-.026-.68-.06-.939-.1a9.394,9.394,0,0,1-.953-.208q-.457-.161-.852-.276a5.624,5.624,0,0,0-.839-.168,22.494,22.494,0,0,0-2.268-.262,6.333,6.333,0,0,0-2.308.288l-.537.067a2,2,0,0,1-2.457-1.329,1.918,1.918,0,0,1,1.316-2.564,2.266,2.266,0,0,0,1.087-.9,2.1,2.1,0,0,1,2.161-1.033,8.031,8.031,0,0,0,3.167-.831q1.046-.347,2.108-.591a21.526,21.526,0,0,0,2.107-.59,49.1,49.1,0,0,1,4.731-1.408,42.373,42.373,0,0,1,4.692-.858,9.544,9.544,0,0,0,1.436-.289,7.992,7.992,0,0,0,1.3-.49,3.375,3.375,0,0,1,1.013-.18,1.875,1.875,0,0,1,.959.262,1.366,1.366,0,0,0,1.195-.04q2.361-1.166,3.7.846,1.3,1.694-.175,3.839a6.563,6.563,0,0,1-2.221,1.858q-1.284.652-2.517,1.242-.834.323-1.719.651t-1.718.65q-.739.2-1.423.4a12.039,12.039,0,0,0-1.409.5,4.917,4.917,0,0,1,.221.9,4.737,4.737,0,0,0,.221.9,33.627,33.627,0,0,1,1.5,5.484,42.773,42.773,0,0,0,1.395,5.5,38.568,38.568,0,0,1,.939,4.9q.308,2.473.831,4.913a26.994,26.994,0,0,1,.629,3.3q.2,1.611.536,3.422.443,1.8,1.046,3.577t1.369,3.537a3.036,3.036,0,0,1-1.182,3.637,2.36,2.36,0,0,1-2.174.053l-.671-.134a2.427,2.427,0,0,0-.766-.013,2.5,2.5,0,0,1-2.657-2.067q-.764-2.63-1.469-5.215t-1.361-5.229q-.471-2.011-.838-4.094t-.958-4.187q-.471-2.012-.993-4.021t-1.113-4.114q-.484-2.12-.818-4.369t-.724-4.49A2.422,2.422,0,0,0,2755.6,277.758Z" transform="translate(-2527.904 1433.799)" fill="#484444"/>
    <path id="Caminho_138" data-name="Caminho 138" d="M2801.036,305.5q1.682-.589,3.438-1.023a11.716,11.716,0,0,0,3.4-1.455,18.2,18.2,0,0,1,2.942-1.684q1.511-.682,3.069-1.478a1.994,1.994,0,0,1,.523-.211,1.907,1.907,0,0,0,.524-.211,2.614,2.614,0,0,1,2.794.232,2.784,2.784,0,0,1,1.06,2.673,3.982,3.982,0,0,0-.1.715,1.5,1.5,0,0,0,.119.7,2.592,2.592,0,0,1-.145,1.97,2.434,2.434,0,0,1-1.625,1.236,9.689,9.689,0,0,1-1.807.438q-.965.146-1.817.331a14.645,14.645,0,0,0-4.946,1.76,35.967,35.967,0,0,1-4.072,1.788q-2,.73-4.113,1.357a2.438,2.438,0,0,1-3.432-1.857,1.2,1.2,0,0,1-.158-.528,2.07,2.07,0,0,0-.167-.637.928.928,0,0,1-.309-.406.727.727,0,0,0-.192-.309,4.558,4.558,0,0,1-1.542-2.574q-.7-2.869-1.223-6.191-.218-1.174-.317-2.252a6.668,6.668,0,0,0-.638-2.224l-.07-.753-.149-1.616-.712-4.173q-.354-1.487-.644-2.875t-.538-2.884a1.26,1.26,0,0,0-.446-.72q-.289-.19-.632-.377a1.187,1.187,0,0,1-.549-.058,1.425,1.425,0,0,1-1.186-1.085,2.034,2.034,0,0,1,.487-1.784,6.759,6.759,0,0,0,.905-.789,2.333,2.333,0,0,0,.542-1.191,1.469,1.469,0,0,1,.724-.991,1.652,1.652,0,0,1,1.234-.168,2.776,2.776,0,0,0,1.489-.355q1.146-.539,2.3-.973t2.3-.972a4.691,4.691,0,0,1,.778-.4,9.365,9.365,0,0,0,.886-.408q1.644-1.02,3.294-1.988t3.294-1.989a7.632,7.632,0,0,1,3.486-1.082,2.208,2.208,0,0,1,1.225.322c.521.169.7.48.521.93a2.392,2.392,0,0,0,.335,1.273,2.681,2.681,0,0,1,.193,2.1,3.11,3.11,0,0,1-1.481,1.6q-1.05.423-1.984.889a12.3,12.3,0,0,1-1.992.782,37.367,37.367,0,0,0-3.868,1.66q-1.87.935-3.622,1.965-.726.393-1.4.726t-1.4.726q.382,1.814.833,3.727t.853,3.943a16.75,16.75,0,0,1,2.237-1.076,12.806,12.806,0,0,0,2.13-1.065q1.143-.539,2.339-1.139t2.448-1.15q.733-.283,1.307-.554a7.045,7.045,0,0,1,1.21-.438,2.5,2.5,0,0,1,3.058,1.348,2.281,2.281,0,0,1-.486,2.98,1.538,1.538,0,0,1-.3.3,1.537,1.537,0,0,0-.3.3,4.3,4.3,0,0,1-2.27,2.492q-1.744,1.137-3.5,2.169a23.81,23.81,0,0,1-3.642,1.749q-.736.286-1.42.511c-.458.151-.9.283-1.322.393a7.639,7.639,0,0,0,.174,1.886q.24,1.444.611,3.1t.778,3.134A8.791,8.791,0,0,0,2801.036,305.5Z" transform="translate(-2535.062 1433.457)" fill="#484444"/>
    <path id="Caminho_139" data-name="Caminho 139" d="M2847.292,311.448q-1.635-.114-3.269-.225a9.871,9.871,0,0,1-3.193-.772q-1.676-.76-3.407-1.571t-3.522-1.673q-.907-.593-1.818-1.293t-1.824-1.4a2.036,2.036,0,0,1-.711-1.8,2.553,2.553,0,0,1,.915-1.793l.455-.517a3.9,3.9,0,0,0,.448-.625c.121-.368.325-.563.614-.581s.514.148.682.5a1.954,1.954,0,0,0,.905.593c.517.184.98.354,1.389.508a11.615,11.615,0,0,1,1.171.522,7.419,7.419,0,0,0,2.283.938,16.92,16.92,0,0,1,2.376.716,15.661,15.661,0,0,0,1.763.43,7.052,7.052,0,0,0,1.741.106,4.2,4.2,0,0,0,.944-.494,1.727,1.727,0,0,0,.479-1.007,8.2,8.2,0,0,0,.046-2.659q-.195-1.343-.493-2.625a5.5,5.5,0,0,0-.358-.52,3.7,3.7,0,0,0-.467-.512q-1.266-1.111-2.413-2.123t-2.42-2.23q-1.737-1.731-3.481-3.573t-3.48-3.573a19.87,19.87,0,0,1-1.242-1.6q-.538-.779-1.133-1.609c-.247-.489-.478-.962-.687-1.42s-.4-.9-.571-1.319a15.843,15.843,0,0,1-1.317-4.469,25.867,25.867,0,0,1-.228-4.432,5.111,5.111,0,0,1,1.831-3.586,7.57,7.57,0,0,1,3.589-1.531,10.071,10.071,0,0,1,3.814.3,11.413,11.413,0,0,0,1.65.383q.767.115,1.644.274a21.459,21.459,0,0,1,2.3.4q1.1.255,2.208.618a6.721,6.721,0,0,0,1.553.551q.769.17,1.432.342a13.414,13.414,0,0,1,3.336,1.305q2.254,1.375,1.631,3.474a2.441,2.441,0,0,1-1.25,1.652,3.556,3.556,0,0,1-2.2.412,12.71,12.71,0,0,1-1.529-.173,12.909,12.909,0,0,0-1.529-.174,9.742,9.742,0,0,0-1.745-.159q-.869,0-1.739-.052t-1.792-.048q-.923.005-1.9-.041a4.8,4.8,0,0,0-2.794.4,2.377,2.377,0,0,0-.762.808,1.611,1.611,0,0,0,.123,1.076,6.917,6.917,0,0,0,1.042,1.886,18.484,18.484,0,0,0,1.46,1.642q1.966,1.935,4.038,3.807a27.29,27.29,0,0,1,3.735,4.153q.7.824,1.359,1.757t1.258,1.871a15.812,15.812,0,0,0,1.306,1.761l1.406,1.645q1.174,1.445,2.246,2.892a12.964,12.964,0,0,1,1.725,3.251,14.3,14.3,0,0,1,.569,5.494,3.192,3.192,0,0,1-.547,1.607,8.786,8.786,0,0,1-4.98,3.517,5.649,5.649,0,0,1-1.279.352C2848.254,311.259,2847.789,311.343,2847.292,311.448Z" transform="translate(-2541.527 1434.079)" fill="#484444"/>
    <path id="Caminho_140" data-name="Caminho 140" d="M2918.506,303.411a9.291,9.291,0,0,1-2.5,2.051,20.341,20.341,0,0,1-2.951,1.3,8.992,8.992,0,0,1-5.2-.117,23.551,23.551,0,0,1-13.207-11.324,16.191,16.191,0,0,1-1.513-2.677,11.614,11.614,0,0,1-.867-2.9,18.334,18.334,0,0,0-.7-2.746q-.459-1.344-1.024-2.632a15.467,15.467,0,0,1,.211-11.368q.83-1.855,1.771-3.606t1.99-3.394a9.99,9.99,0,0,1,1.221-1.268q.691-.608,1.439-1.164a13.4,13.4,0,0,1,2.236-1.884,13.912,13.912,0,0,1,2.563-1.727,9.615,9.615,0,0,1,3.012-.978,10.078,10.078,0,0,1,3.9.033,13.631,13.631,0,0,1,3.6,1.338,19.9,19.9,0,0,1,7.955,8.4,10.593,10.593,0,0,1,.971,2.633c.2.9.414,1.815.648,2.747a24.1,24.1,0,0,1,1.139,5.769,46.124,46.124,0,0,1,.061,5.9,27.59,27.59,0,0,0-.213,2.98q-.028,1.462-.107,2.871a21.958,21.958,0,0,1-.375,3.037,19.419,19.419,0,0,1-.808,2.938,1.135,1.135,0,0,0-.148.706,2.913,2.913,0,0,0,.284.7q1.115,1.819,2.183,3.745t2.183,3.746q.9,1.824-.378,2.821a2.035,2.035,0,0,1-3.032-.049l-.386-.372-.386-.371q-.891-1.173-1.668-2.349t-1.561-2.351A1.762,1.762,0,0,0,2918.506,303.411Zm-2.089-12.839.325-.007a11.125,11.125,0,0,0,.141-1.138q.041-.6.032-1.137.072-1.84-.018-3.734t-.343-3.727a66.708,66.708,0,0,0-2.9-10.01q-.458-1.288-.967-2.416t-1.07-2.2a3.588,3.588,0,0,0-3.831-2.2,2.913,2.913,0,0,1-.6-.042,1.162,1.162,0,0,0-.594.065q-1.08.13-2.05.31a4.183,4.183,0,0,0-1.824.847,14.127,14.127,0,0,0-3.8,4.728,20.991,20.991,0,0,0-1.794,5.176,53.429,53.429,0,0,0-.815,5.373,5.889,5.889,0,0,0-.269,2.928,41.748,41.748,0,0,0,.731,4.261,12.769,12.769,0,0,0,1.592,3.919,1.9,1.9,0,0,1,.39.588q.168.377.281.59a7.277,7.277,0,0,0,1.071,2.2q.723,1.017,1.612,2.188a14.8,14.8,0,0,0,8.753,4.917,3.636,3.636,0,0,0,3.543-1.476,17.257,17.257,0,0,0,1.046-1.861q-.225-.32-.444-.586c-.149-.176-.3-.336-.443-.478q-1.883-2.128-3.493-4.316a54.376,54.376,0,0,1-3.066-4.649,9.016,9.016,0,0,1-.4-1.183,9.32,9.32,0,0,0-.4-1.183,1.907,1.907,0,0,1,.934-2.074,1.848,1.848,0,0,1,2.162-.15,5.022,5.022,0,0,1,1.646,1.158q1.1,1.062,2.1,2.178t2.1,2.286a1.756,1.756,0,0,1,.333.427A1.621,1.621,0,0,0,2916.417,290.572Z" transform="translate(-2551.536 1434.943)" fill="#484444"/>
    <path id="Caminho_141" data-name="Caminho 141" d="M2939.1,274.73q.013-1.838-.031-3.679t.077-3.679q.233-2.92.469-5.948a33.027,33.027,0,0,1,1.01-5.946,13.49,13.49,0,0,1,.5-1.566,3.041,3.041,0,0,1,.928-1.239,2.241,2.241,0,0,1,3.249-.413,1.6,1.6,0,0,0,1.188.44q1.73-.205,1.5,1.849-.116.974-.229,1.946a19.744,19.744,0,0,0-.12,2.164,49.777,49.777,0,0,0-.144,5.734q.088,2.922.4,5.738.2,3.141.611,6.28t.827,6.28a38,38,0,0,0,4.357,13.013,7.967,7.967,0,0,0,2.579,2.829q1.506,1.2,2.167-.528a5.51,5.51,0,0,0,.166-.594,4.945,4.945,0,0,1,.165-.595q.559-2.918,1.064-5.782t.739-5.785q.347-3.893.589-7.841t.806-7.841a43.46,43.46,0,0,0,.089-5.735q-.143-2.922-.234-5.844.009-1.514.126-2.975t.236-2.975a1.961,1.961,0,0,1,1.959-1.719,2.055,2.055,0,0,1,2.484.773,6.643,6.643,0,0,1,.529,1.843q.2,2.167.3,4.276t.3,4.168q.192,3.79.224,7.414t-.1,7.3q-.124,2.271-.352,4.434t-.353,4.435a54.553,54.553,0,0,1-.579,6.056,50.96,50.96,0,0,1-1.336,6.051q-.44,1.08-.878,2.051a9.532,9.532,0,0,1-1.094,1.833c-.218.288-.4.538-.546.754a7.07,7.07,0,0,0-.438.754,7.954,7.954,0,0,1-3.7,3.6,8.8,8.8,0,0,1-4.982.781,7.718,7.718,0,0,1-2.537-.936,17.062,17.062,0,0,1-2.316-1.583,21.756,21.756,0,0,1-4.032-4.354,35.235,35.235,0,0,1-2.946-5.1,40.438,40.438,0,0,1-1.648-4.717,25.76,25.76,0,0,1-.888-5.038q-.2-2.6-.185-5.195t-.076-5.194Z" transform="translate(-2559.503 1436.334)" fill="#484444"/>
    <path id="Caminho_142" data-name="Caminho 142" d="M2986.272,300.438c.012-.433.006-.882-.017-1.354s-.028-.92-.017-1.353q-.074-1.193-.1-2.168c-.02-.65-.016-1.371.006-2.166a26.944,26.944,0,0,0-.207-4.227q-.267-2.062-.426-4.125a1.491,1.491,0,0,1-.09-.652,1.971,1.971,0,0,0-.611-1.425,3.039,3.039,0,0,1-.923-1.866,2.071,2.071,0,0,1,.6-2.257,2.706,2.706,0,0,1,.388-.314,2.541,2.541,0,0,0,.388-.314q-.171-5.526-.66-11.277l-.649-.018a3.459,3.459,0,0,1-1.8-1.565,3.862,3.862,0,0,1-.692-2.347,3.743,3.743,0,0,1,1.573-2.067,1.319,1.319,0,0,1,.608-.471c.255-.1.529-.218.822-.356a1.656,1.656,0,0,0,.79-1.168c.159-.5.315-1,.476-1.5s.316-1.037.477-1.611a1.8,1.8,0,0,1,1.658-1.253,2.1,2.1,0,0,1,1.923.919,4.1,4.1,0,0,1,.618,1.154,3.165,3.165,0,0,1,.067,1.463l-.027.974a4.743,4.743,0,0,1,.868-.085l.758.022a25.789,25.789,0,0,1,3.742-.275q1.893,0,3.953-.052,1.954-.161,3.907-.379t3.8-.273q1.193-.073,2.33-.1t2.327.01a2,2,0,0,1,1.495.746,2.263,2.263,0,0,1,.606,1.586,2.14,2.14,0,0,1-2.229,2.319,7.566,7.566,0,0,1-1.247.074,7.736,7.736,0,0,0-1.247.073.857.857,0,0,0-.543.094,3.417,3.417,0,0,1-1.28,1.209,8.552,8.552,0,0,1-1.368.558q-1.638.5-3.216.83a30.4,30.4,0,0,0-3.109.834c-.437.133-.8.231-1.091.294q-1.851.272-3.8.544t-3.915.648q.036,2.493-.031,4.979t-.138,4.976a2.431,2.431,0,0,0,.488-.04,2.226,2.226,0,0,1,.381-.044,26.244,26.244,0,0,1,7.523-1.955q1.2-.182,2.176-.373t2.067-.375a20.515,20.515,0,0,1,3.795-.219,2.1,2.1,0,0,1,1.905,1.568,6.83,6.83,0,0,1,.391,1.527,1.306,1.306,0,0,1-.189.97,3.824,3.824,0,0,1-.5.635,4.045,4.045,0,0,1-.508.744,3.792,3.792,0,0,0-.508.743c-.3.354-.543.634-.728.846a1.987,1.987,0,0,1-.935.515q-2.173.264-4.133.7t-4.135.805a14.6,14.6,0,0,1-3.313.4q-1.68.009-3.2.073l-.648-.018c-.01.362-.04.74-.086,1.135s-.076.774-.086,1.134q-.052,1.841-.106,3.786t0,3.789a11.479,11.479,0,0,0,.153,2.277q.185,1.088.369,2.283a1.765,1.765,0,0,0,.042.435,2.364,2.364,0,0,1,.039.543,1.123,1.123,0,0,0,.652-.091q2.832-.677,5.453-1.471t5.457-1.58q1.088-.186,2.23-.372c.762-.122,1.539-.244,2.338-.367a4.021,4.021,0,0,1,1.732-.006,5.045,5.045,0,0,1,1.711.751q1.714.591,1.114,2.738a2.516,2.516,0,0,0-.144,1.294,1.981,1.981,0,0,1-.148,1.458,4,4,0,0,1-1.006,1.108,13.86,13.86,0,0,1-3.78,1.627q-1.909.489-3.87.975-2.505.473-5.054.726t-5.261.394a2.217,2.217,0,0,1-.706.089,2.256,2.256,0,0,0-.706.088,1.653,1.653,0,0,0-.235.643,1.946,1.946,0,0,1-1.763,1.142,2.037,2.037,0,0,1-1.809-1.132,2.869,2.869,0,0,1-.153-.383,3.287,3.287,0,0,0-.152-.383.286.286,0,0,0-.315-.333,2.885,2.885,0,0,1-1.116-.735q-.473-.5-.894-.945a2.252,2.252,0,0,1-.647-2.021,2.485,2.485,0,0,1,1.186-1.753l.439-.2A1.222,1.222,0,0,0,2986.272,300.438Z" transform="translate(-2566.345 1435.623)" fill="#484444"/>
    <path id="Caminho_143" data-name="Caminho 143" d="M3065.44,312.3q-1.609-.307-3.217-.612a9.858,9.858,0,0,1-3.079-1.148q-1.573-.954-3.2-1.966t-3.3-2.081q-.831-.7-1.651-1.5t-1.644-1.609a2.037,2.037,0,0,1-.491-1.871,2.555,2.555,0,0,1,1.122-1.671l.513-.459a3.977,3.977,0,0,0,.52-.567c.164-.351.39-.521.678-.5s.493.208.618.576a1.959,1.959,0,0,0,.828.7q.737.367,1.318.669a11.558,11.558,0,0,1,1.1.659,7.433,7.433,0,0,0,2.155,1.2,16.864,16.864,0,0,1,2.275.994,15.57,15.57,0,0,0,1.7.636,7.01,7.01,0,0,0,1.717.313,4.129,4.129,0,0,0,1-.377,1.724,1.724,0,0,0,.595-.943,8.2,8.2,0,0,0,.364-2.635q-.033-1.355-.176-2.665a5.558,5.558,0,0,0-.294-.559,3.711,3.711,0,0,0-.4-.564q-1.124-1.255-2.142-2.4t-2.137-2.5q-1.517-1.928-3.03-3.963t-3.03-3.963a19.363,19.363,0,0,1-1.041-1.738q-.442-.837-.934-1.731-.281-.774-.512-1.492t-.41-1.377a15.849,15.849,0,0,1-.773-4.6,25.784,25.784,0,0,1,.3-4.427,5.116,5.116,0,0,1,2.246-3.343,7.583,7.583,0,0,1,3.746-1.091,10.07,10.07,0,0,1,3.75.751,11.549,11.549,0,0,0,1.594.577q.746.2,1.6.468a21.468,21.468,0,0,1,2.239.667q1.061.385,2.118.877a6.821,6.821,0,0,0,1.477.732q.744.259,1.382.511a13.408,13.408,0,0,1,3.156,1.693q2.076,1.636,1.206,3.644a2.448,2.448,0,0,1-1.438,1.491,3.566,3.566,0,0,1-2.23.147,12.734,12.734,0,0,1-1.5-.355,13.16,13.16,0,0,0-1.5-.355,9.816,9.816,0,0,0-1.713-.367q-.864-.1-1.72-.258t-1.774-.262q-.917-.1-1.882-.268a4.8,4.8,0,0,0-2.821.06,2.4,2.4,0,0,0-.853.711,1.623,1.623,0,0,0-.005,1.083,6.909,6.909,0,0,0,.809,2,18.344,18.344,0,0,0,1.255,1.8q1.721,2.155,3.555,4.262a27.467,27.467,0,0,1,3.214,4.568q.6.9,1.139,1.907t1.027,2.008a15.943,15.943,0,0,0,1.086,1.9q.6.9,1.2,1.8.995,1.573,1.884,3.139a12.981,12.981,0,0,1,1.326,3.433,14.328,14.328,0,0,1-.092,5.523,3.179,3.179,0,0,1-.736,1.53,8.762,8.762,0,0,1-5.364,2.9,5.68,5.68,0,0,1-1.312.2C3066.42,312.227,3065.948,312.255,3065.44,312.3Z" transform="translate(-2577.201 1434.154)" fill="#484444"/>
    <path id="Caminho_144" data-name="Caminho 144" d="M3116.986,288.638a29.973,29.973,0,0,1-7.9,18.434,23.16,23.16,0,0,1-3.633,3.11,15.94,15.94,0,0,1-4.214,2.093,15.652,15.652,0,0,1-3.637.832,7.634,7.634,0,0,1-3.756-.586,7.888,7.888,0,0,1-2.454-1.364,8.8,8.8,0,0,1-1.754-2.074,21.209,21.209,0,0,1-3.033-6.286,26.687,26.687,0,0,1-1.039-6.905,24.132,24.132,0,0,1,1.693-10.3,22.332,22.332,0,0,1,1.947-3.823q1.156-1.816,2.156-3.7a15.119,15.119,0,0,1,4.255-5.02,10.135,10.135,0,0,1,4.555-2.34,12.12,12.12,0,0,1,5.254.095,10.152,10.152,0,0,1,3.958,1.577,16.13,16.13,0,0,1,3.22,2.827,5.065,5.065,0,0,1,.774,1.356q.686,1.023,1.264,2.095t1.149,2.2a8.129,8.129,0,0,1,1,2.835q.223,1.48.333,3.006Zm-7.4-1.274a4.8,4.8,0,0,0,.049-2.274,17.384,17.384,0,0,0-.612-2.1,6.8,6.8,0,0,0-4.141-4.41,10.945,10.945,0,0,0-4.318-.3,4.2,4.2,0,0,0-2.71,1.547q-.6.828-1.192,1.544a17.259,17.259,0,0,0-1.077,1.444,36.519,36.519,0,0,0-2.331,4.665,13.925,13.925,0,0,0-1.051,4.971q-.029,1.95.05,3.963a16.883,16.883,0,0,0,.6,3.892,13.317,13.317,0,0,0,.458,1.985q.31,1,.775,2.115a4.9,4.9,0,0,0,4.053,2.56,2.011,2.011,0,0,0,1.808-.254,10.246,10.246,0,0,0,1.327-1.155,30.408,30.408,0,0,0,3.185-3.683,22.007,22.007,0,0,0,2.475-4.384A41.133,41.133,0,0,0,3109.591,287.363Z" transform="translate(-2583.119 1433.063)" fill="#484444"/>
    <path id="Caminho_145" data-name="Caminho 145" d="M3136.652,285.692c.006.8-.018,1.556-.077,2.273s-.084,1.478-.076,2.274q-.088,2.382-.274,4.7t-.174,4.817q.021,2.392.148,4.843t.14,4.951a22.165,22.165,0,0,1,.313,4.151,2.255,2.255,0,0,1-1.146,2.079,2.167,2.167,0,0,1-2.282.031,7.841,7.841,0,0,1-1.481-1.152c-.436-.433-.85-.884-1.247-1.351a.982.982,0,0,1-.335-1.221,18.249,18.249,0,0,0,.173-3.46q-.086-1.636-.052-3.37.024-1.626.044-3.2a21.762,21.762,0,0,0-.182-3.109q-.094-1.526-.069-3.154t-.061-3.262q-.075-1.741-.1-3.482t.012-3.473q0-2.713.006-5.428t.223-5.41q.123-1.51.358-3.065t.573-3.048a5.1,5.1,0,0,1,1.6-2.367,2.352,2.352,0,0,1,1.622-.574,1.967,1.967,0,0,1,1.516.721c.2.233.377.465.54.7a3.287,3.287,0,0,1,.415.9q.524,1.564.99,3.175t.99,3.174q.525,1.565.936,3.171a19.8,19.8,0,0,0,1.053,3.071q.712,1.905,1.543,3.709t1.661,3.609q1.207,2.488,2.593,4.825t2.709,4.727q.766,1.258,1.47,2.616t1.47,2.616a2.1,2.1,0,0,1,.334.57,2.538,2.538,0,0,0,.432.686,1.659,1.659,0,0,0,.269-.63l1.246-15.315q.123-1.51.345-2.9t.443-2.787q.264-1.933.371-3.879a25.917,25.917,0,0,1,.468-3.761q.418-2.462.786-4.984a26.615,26.615,0,0,1,1.217-4.95,3.408,3.408,0,0,1,1.273-1.633,2.2,2.2,0,0,1,1.923-.278,2.428,2.428,0,0,1,1.547.995,2.727,2.727,0,0,1,.5,1.886q-.043,1.843-.069,3.523t-.07,3.522l-.746,9.168q-.087,2.382-.27,4.646t-.376,4.638q-.259,1.827-.456,3.6t-.456,3.6q-.384,2.032-.6,4.022t-.5,4.14a10.9,10.9,0,0,0-.208,1.883q-.021.922-.091,1.784-.152.531-.3,1.06l-.3,1.061q-.261.523-.582,1.148t-.7,1.246a2.322,2.322,0,0,1-2.276,1.28,3.116,3.116,0,0,1-2.488-1.45q-.847-1.588-1.762-3.021t-1.763-3.021q-.947-1.7-1.84-3.407t-1.848-3.3q-.966-1.487-1.83-2.863t-1.615-2.845a49.869,49.869,0,0,1-2.605-4.663q-1.167-2.374-2.158-4.844a1.4,1.4,0,0,1-.284-.512,1.48,1.48,0,0,0-.283-.511C3136.87,285.674,3136.795,285.7,3136.652,285.692Z" transform="translate(-2590.271 1434.309)" fill="#484444"/>
    <path id="Caminho_146" data-name="Caminho 146" d="M3182.623,292.642q2.208-.3,4.194-.513t3.979-.538a16.126,16.126,0,0,1,3.406-.274,2.475,2.475,0,0,1,2.772,1.506.807.807,0,0,0,.311.143,6.053,6.053,0,0,0,1.321-.125,1.966,1.966,0,0,0,.747-.352,1.241,1.241,0,0,0,.406-.717,13.068,13.068,0,0,0,.2-1.338q.467-2.235.771-4.488t.665-4.5l.107-.968a3.107,3.107,0,0,1,1.482-1.577,3.005,3.005,0,0,1,2.569.394,3.288,3.288,0,0,1,1.625,2.033,8.154,8.154,0,0,1,.262,4.492q-.312,1.818-.465,3.705t-.359,3.716q-.265,2.367-.514,4.625t-.621,4.613a38.37,38.37,0,0,0-.455,4.577q-.086,2.223-.025,4.625a11.344,11.344,0,0,1,.035,1.148q-.012.6-.071,1.135a2.287,2.287,0,0,1-.2.849,3.5,3.5,0,0,0-.514,1.194c-.082.391-.139.765-.18,1.123a2.476,2.476,0,0,1-1.673,2.318,1.381,1.381,0,0,0-.682.251l-.478.383a2.323,2.323,0,0,1-2.456.054,2.374,2.374,0,0,1-1.237-2.1,13.918,13.918,0,0,1-.126-1.81,14.317,14.317,0,0,0-.124-1.811,30.954,30.954,0,0,1-.209-5.467q.137-2.705.543-5.384.169-1.5.324-2.9t.419-2.783c-.154.055-.322.11-.507.16s-.357.107-.509.162q-1.592.586-3.281,1.1t-3.364.878a9.239,9.239,0,0,1-4.171.3,15.11,15.11,0,0,1-4.1-1.328.434.434,0,0,1-.311-.143.1.1,0,0,1-.12.095l-.12.1q-.4,2.568-.837,5.078t-.836,5.078c-.048.43-.081.881-.1,1.351a10.1,10.1,0,0,0,.024,1.254,3.424,3.424,0,0,1-.491,2.45,3.489,3.489,0,0,0-.513,1.194c-.082.391-.14.766-.18,1.124l-.108.967a2.413,2.413,0,0,1-.9,1.7,2.83,2.83,0,0,1-1.865.609,2.787,2.787,0,0,1-1.78-.633,2.363,2.363,0,0,1-.9-1.733q-.025-.762.007-1.523c.018-.505.057-1.009.113-1.512l1.2-10.755q.225-1.062.407-2.187a14.664,14.664,0,0,1,.513-2.175,2.155,2.155,0,0,0-.179-1.326,2.511,2.511,0,0,1,.252-2.258,2.982,2.982,0,0,0,.759-1.44c.091-.5.2-.958.317-1.38q1-6.095,1.973-11.866a9.624,9.624,0,0,0,.459-1.69q.15-.854.353-1.7a2.233,2.233,0,0,1,.2-.849,1.956,1.956,0,0,1,2.066-.967,1.883,1.883,0,0,1,1.034.5,1.519,1.519,0,0,1,.532,1.093,4.54,4.54,0,0,0,.622,2.246,4.164,4.164,0,0,1,.071,1.315q-.312,1.818-.562,3.584t-.455,3.6Z" transform="translate(-2597.281 1432.173)" fill="#484444"/>
    <path id="Caminho_147" data-name="Caminho 147" d="M3236.512,315.368a58.923,58.923,0,0,1-7.488.471q-3.711-.005-7.508-.186-.373,1.153-.791,2.241t-.777,2.135q-.659,1.658-1.2,3.224t-1.2,3.224c-.192.337-.359.643-.5.915a3.57,3.57,0,0,1-.6.794,1.821,1.821,0,0,1-2.474.542,1.9,1.9,0,0,1-.878-2.41,1.208,1.208,0,0,1,.179-.523,15.18,15.18,0,0,0,.918-3.589,16.17,16.17,0,0,1,.538-3.2q.429-1.58.967-3.146a1.682,1.682,0,0,0-.021-1.477,5.353,5.353,0,0,0-.829-1.148q-1.545-1.517-.914-2.961a2.9,2.9,0,0,1,1.167-1.372,3.047,3.047,0,0,1,1.709-.535l.965.129q.372-1.15.723-2.142c.234-.659.474-1.372.724-2.141q1.474-4.5,2.9-9.055t2.918-9.162q.759-2.41,1.519-4.819t1.611-4.7q.371-1.15.783-2.188a7.965,7.965,0,0,1,1.2-2.023,3.755,3.755,0,0,0,.476-.7,1.693,1.693,0,0,1,.69-.672,2.3,2.3,0,0,1,1.174-.607,8.92,8.92,0,0,0,1.083-.346c.345-.135.711-.288,1.1-.454a2.8,2.8,0,0,1,3.609,1.575,18.214,18.214,0,0,1,1.02,4.613q.248,2.218.444,4.427t.445,4.427q.282,4.405.513,8.8t.513,8.8q.121,1.546.3,3.043t.409,3.057a1.111,1.111,0,0,0,.328.808,3.106,3.106,0,0,1,.4,3.547,1.637,1.637,0,0,0-.236.95q.2,2.54.311,5.01t.312,5.01a30.529,30.529,0,0,1,.448,3.99,11.243,11.243,0,0,1,.011,1.148c-.018.4-.055.811-.112,1.241a2.209,2.209,0,0,1-2.017,2.022,2.24,2.24,0,0,1-2.387-1.739,21.538,21.538,0,0,1-.832-3.168q-.282-1.565-.495-3.232-.281-2-.541-4.112T3236.512,315.368Zm-1.1-6.479q-.583-5.427-1.228-10.809t-1.32-10.931q-2.294,5.7-4.6,11.121t-4.586,11.014a31.766,31.766,0,0,0,5.889.461A23.535,23.535,0,0,0,3235.414,308.889Z" transform="translate(-2603.66 1433.243)" fill="#484444"/>
    <path id="Caminho_148" data-name="Caminho 148" d="M3284.209,306.81a1.631,1.631,0,0,0-.366.6,2.011,2.011,0,0,1-.244.51,19.319,19.319,0,0,0-2.473,3.942q-.983,2.092-1.955,4.131a1.329,1.329,0,0,1-.471.913,3.758,3.758,0,0,0-1.36,1.705,18.391,18.391,0,0,1-.842,1.895c-.2.335-.369.618-.515.851s-.313.481-.5.744a2.407,2.407,0,0,1-2.889.976,2.284,2.284,0,0,1-1.667-2.668l.1-.642a2.057,2.057,0,0,1-.919-1.128q-.222-.692-.426-1.49-.418-2.254-.779-4.5a43.077,43.077,0,0,0-.993-4.535,13.431,13.431,0,0,1-.651-2.51,22.085,22.085,0,0,0-.543-2.494,3.154,3.154,0,0,1-.23-.638,3.365,3.365,0,0,0-.229-.638q-.208.625-.4,1.143a6,6,0,0,0-.289,1.159q-1.15,3.874-2.174,7.657t-2.051,7.566a10.127,10.127,0,0,0-.518,2.274,16.92,16.92,0,0,1-.41,2.291,3.957,3.957,0,0,0-.434,1.028,3.978,3.978,0,0,1-.433,1.028,2.211,2.211,0,0,1-1.914,1.4,2.663,2.663,0,0,1-2.208-.945,1.765,1.765,0,0,0-.954-.914,2.141,2.141,0,0,1-1.345-2.618q.543-2.105,1.075-4.1t1.075-4.1q.973-3.463,1.9-6.932t1.808-7.056q1.1-3.552,1.975-7.086a41.392,41.392,0,0,1,2.387-6.911,2.823,2.823,0,0,0,.332-2.139,2.058,2.058,0,0,1-.095-.452,2.194,2.194,0,0,1,.031-.543q-.052-1.1,1.21-1.455a1.339,1.339,0,0,1,1.645.693,2.947,2.947,0,0,0,.615.972,11.372,11.372,0,0,0,.864.791l.179.247a3.8,3.8,0,0,0,1.782,1.919,1.189,1.189,0,0,1,.345.6q.147.462.221.691a5.243,5.243,0,0,1-.588,3.084,2.667,2.667,0,0,0-.166,1.07q.619,3.053,1.3,6.114t1.278,6.221c.086.38.2.8.352,1.26a7.469,7.469,0,0,1,.3,1.58,3.272,3.272,0,0,1,.273-.341.687.687,0,0,0,.164-.358q1.566-3.041,3.287-6.005t3.591-5.848q1.607-2.6,3.093-5.105t3.091-5.1a6.053,6.053,0,0,1,.8-1.3,6.175,6.175,0,0,0,.8-1.3,2.094,2.094,0,0,1,1.2-.69,1.1,1.1,0,0,1,1.126.5q.558.635,1.108,1.322a2.412,2.412,0,0,1,.508,1.666.938.938,0,0,1,.127.239.8.8,0,0,0,.127.239,3.013,3.013,0,0,1,.882,1.725,6.645,6.645,0,0,1-.023,1.913,19.051,19.051,0,0,1-.328,2.468,18.647,18.647,0,0,0-.329,2.468q-.176,1.836-.251,3.739t-.162,3.862q-.064,3.933-.134,7.919t-.059,8.149q-.087,1.959-.01,3.941t-.026,4.048q0,2.082.126,4.125t.125,4.126a2.786,2.786,0,0,1-.516,1.563,2.192,2.192,0,0,1-1.4.878,3.113,3.113,0,0,1-1.6-.249,2.419,2.419,0,0,1-1.134-1.162,1.925,1.925,0,0,1-.076-.559,1.964,1.964,0,0,0-.078-.56.8.8,0,0,1-.127-.238.947.947,0,0,0-.128-.239,2.2,2.2,0,0,1-1.368-1.418,10.741,10.741,0,0,1-.322-1.8q-.121-1.334-.174-2.765t-.066-2.748q.07-3.275-.028-6.52t-.471-6.479q-.034-1.209-.08-2.312t-.1-2.205A.308.308,0,0,1,3284.209,306.81Z" transform="translate(-2610.117 1431.317)" fill="#484444"/>
  </g>
</svg>
