<svg xmlns="http://www.w3.org/2000/svg" width="14.156" height="14.156" viewBox="0 0 14.156 14.156"><path d="M7.078,0A7.079,7.079,0,0,0,.939,10.6L.027,13.434a.553.553,0,0,0,.7.7l2.832-.912A7.078,7.078,0,1,0,7.078,0Zm0,13.05a5.955,5.955,0,0,1-3.161-.9.553.553,0,0,0-.463-.057l-2.044.658L2.068,10.7a.553.553,0,0,0-.058-.463A5.972,5.972,0,1,1,7.078,13.05Zm.691-5.972a.691.691,0,1,1-.691-.691A.691.691,0,0,1,7.769,7.078Zm2.765,0a.691.691,0,1,1-.691-.691A.691.691,0,0,1,10.534,7.078ZM5,7.078a.691.691,0,1,1-.691-.691A.691.691,0,0,1,5,7.078Zm0,0" fill="#cbcbcb"/></svg>