<svg xmlns="http://www.w3.org/2000/svg" width="17.128" height="22.754" viewBox="0 0 17.128 22.754"><g transform="translate(4.15 0.15)"><path d="M10.362,1.525H6.753a2.557,2.557,0,0,0-4.679,0H-1.534A2.469,2.469,0,0,0-4,3.991v16a2.469,2.469,0,0,0,2.466,2.466h11.9a2.469,2.469,0,0,0,2.466-2.466v-16A2.469,2.469,0,0,0,10.362,1.525ZM2.481,2.647a.561.561,0,0,0,.548-.441,1.427,1.427,0,0,1,2.77,0,.561.561,0,0,0,.548.441H7.461V3.14A1.345,1.345,0,0,1,6.117,4.483H2.711A1.345,1.345,0,0,1,1.367,3.14V2.647Zm9.225,17.341a1.345,1.345,0,0,1-1.343,1.343h-11.9a1.345,1.345,0,0,1-1.343-1.343v-16A1.345,1.345,0,0,1-1.534,2.647H.245V3.14A2.469,2.469,0,0,0,2.711,5.606H6.117A2.469,2.469,0,0,0,8.583,3.14V2.647h1.779a1.345,1.345,0,0,1,1.343,1.343Zm0,0" fill="#cbcbcb" stroke="#cbcbcb" stroke-width="0.3"/><path d="M106.769,227.6l-3.685,3.6-1.871-1.827a.561.561,0,0,0-.792.8l.008.007,2.263,2.21a.562.562,0,0,0,.784,0l4.077-3.981a.561.561,0,0,0-.784-.8Zm0,0" transform="translate(-99.577 -217.229)" fill="#cbcbcb" stroke="#cbcbcb" stroke-width="0.3"/></g></svg>