<svg xmlns="http://www.w3.org/2000/svg" width="65.208" height="42.69" viewBox="0 0 65.208 42.69">
  <g id="Grupo_83" data-name="Grupo 83" transform="translate(1 1)">
    <path id="Caminho_244" data-name="Caminho 244" d="M352.069,99.955h29.984a.329.329,0,0,1,.329.329v1A1.714,1.714,0,0,1,380.667,103H350.356" transform="translate(-319.345 -62.311)" fill="none" stroke="#cbcbcb" stroke-linecap="round" stroke-linejoin="round" stroke-width="2"/>
    <line id="Linha_14" data-name="Linha 14" x2="1.442" transform="translate(38.528 11.993)" fill="none" stroke="#cbcbcb" stroke-linecap="round" stroke-linejoin="round" stroke-width="2"/>
    <line id="Linha_15" data-name="Linha 15" x2="35.747" transform="translate(22.723 14.674)" fill="none" stroke="#cbcbcb" stroke-linecap="round" stroke-linejoin="round" stroke-width="2"/>
    <path id="Caminho_245" data-name="Caminho 245" d="M342,63.942H372.56a3.485,3.485,0,0,1,3.484,3.484V87.513l4.325,4.822" transform="translate(-317.574 -54.674)" fill="none" stroke="#cbcbcb" stroke-linecap="round" stroke-linejoin="round" stroke-width="2"/>
    <line id="Linha_16" data-name="Linha 16" x2="25.798" transform="translate(32.672 32.856)" fill="none" stroke="#cbcbcb" stroke-linecap="round" stroke-linejoin="round" stroke-width="2"/>
    <path id="Caminho_246" data-name="Caminho 246" d="M337.661,61.141c0,4.95-3.611,9.5-8.066,9.5s-8.065-4.548-8.065-9.5,3.611-8.961,8.065-8.961S337.661,56.192,337.661,61.141Z" transform="translate(-313.233 -52.18)" fill="none" stroke="#cbcbcb" stroke-linecap="round" stroke-linejoin="round" stroke-width="2"/>
    <path id="Caminho_247" data-name="Caminho 247" d="M341.876,97.965H312.848A1.848,1.848,0,0,1,311,96.117V92.571a16.362,16.362,0,0,1,16.362-16.362h0a16.362,16.362,0,0,1,16.363,16.362v3.547A1.848,1.848,0,0,1,341.876,97.965Z" transform="translate(-311 -57.275)" fill="none" stroke="#cbcbcb" stroke-linecap="round" stroke-linejoin="round" stroke-width="2"/>
    <line id="Linha_17" data-name="Linha 17" y2="8.571" transform="translate(7.132 32.119)" fill="none" stroke="#cbcbcb" stroke-linecap="round" stroke-linejoin="round" stroke-width="2"/>
    <line id="Linha_18" data-name="Linha 18" y2="8.571" transform="translate(25.592 32.119)" fill="none" stroke="#cbcbcb" stroke-linecap="round" stroke-linejoin="round" stroke-width="2"/>
    <path id="Caminho_248" data-name="Caminho 248" d="M363.6,78.811l-8.028-3.447a.184.184,0,0,0-.242.241l3.448,8.028a.184.184,0,0,0,.3.058l1.157-1.157a.184.184,0,0,1,.26,0L363.959,86a.184.184,0,0,0,.261,0l1.745-1.745a.184.184,0,0,0,0-.26L362.5,80.527a.183.183,0,0,1,0-.26l1.157-1.157A.185.185,0,0,0,363.6,78.811Z" transform="translate(-320.397 -57.093)" fill="none" stroke="#cbcbcb" stroke-linecap="round" stroke-linejoin="round" stroke-width="2"/>
  </g>
</svg>
