<svg xmlns="http://www.w3.org/2000/svg" width="21.086" height="22.628" viewBox="0 0 21.086 22.628"><g transform="translate(-74.461 -286)"><g transform="translate(57.021 286)"><g transform="translate(22.505)"><path d="M137.527,0a5.412,5.412,0,0,0-5.478,5.588,5.5,5.5,0,1,0,10.956,0A5.412,5.412,0,0,0,137.527,0Zm0,9.883A4.085,4.085,0,0,1,133.7,5.588a3.755,3.755,0,0,1,3.826-3.937,3.8,3.8,0,0,1,3.826,3.937A4.085,4.085,0,0,1,137.527,9.883Z" transform="translate(-132.049)" fill="#cbcbcb"/></g></g><g transform="translate(74.461 298.746)"><path d="M27.983,288.389c-6.8,0-10.543,3.216-10.543,9.057a.826.826,0,0,0,.826.826H37.7a.826.826,0,0,0,.826-.826C38.527,291.606,34.782,288.389,27.983,288.389Zm-8.862,8.231c.325-4.367,3.3-6.579,8.862-6.579s8.537,2.212,8.862,6.579Z" transform="translate(-17.44 -288.389)" fill="#cbcbcb"/></g></g></svg>