<svg xmlns="http://www.w3.org/2000/svg" width="18.273" height="25.989" viewBox="0 0 18.273 25.989"><g transform="translate(-76)"><g transform="translate(76)"><g transform="translate(0)"><path d="M85.137,0a9.138,9.138,0,0,0-7.773,13.941l7.253,11.688a.761.761,0,0,0,.647.36h.006a.761.761,0,0,0,.647-.37l7.068-11.8A9.139,9.139,0,0,0,85.137,0Zm6.541,13.036L85.252,23.765,78.658,13.139a7.619,7.619,0,1,1,13.02-.1Z" transform="translate(-76)" fill="#cbcbcb"/></g></g><g transform="translate(80.568 4.568)"><g transform="translate(0)"><path d="M170.568,90a4.568,4.568,0,1,0,4.568,4.568A4.574,4.574,0,0,0,170.568,90Zm0,7.624a3.056,3.056,0,1,1,3.051-3.056A3.058,3.058,0,0,1,170.568,97.624Z" transform="translate(-166 -90)" fill="#cbcbcb"/></g></g></g></svg>