<svg xmlns="http://www.w3.org/2000/svg" width="34" height="39" viewBox="0 0 34 39">
  <g id="Polígono_1" data-name="Polígono 1" transform="translate(34) rotate(90)" fill="none" stroke-linejoin="round">
    <path d="M17.765,3.025a2,2,0,0,1,3.47,0L37.282,31a2,2,0,0,1-1.735,3H3.453a2,2,0,0,1-1.735-3Z" stroke="none"/>
    <path d="M 19.5 6.030008316040039 L 5.178966522216797 30.9999942779541 L 33.82102966308594 30.9999942779541 L 19.5 6.030008316040039 M 19.5 2.019996643066406 C 20.17532730102539 2.019996643066406 20.85065460205078 2.354988098144531 21.23490905761719 3.024974822998047 L 37.28226852416992 31.00497436523438 C 38.04697036743164 32.33830261230469 37.08440017700195 33.99999618530273 35.54734802246094 33.99999618530273 L 3.452648162841797 33.99999618530273 C 1.915599822998047 33.99999618530273 0.9530296325683594 32.33830261230469 1.717731475830078 31.00497436523438 L 17.76509094238281 3.024974822998047 C 18.14934539794922 2.354988098144531 18.82467269897461 2.019996643066406 19.5 2.019996643066406 Z" stroke="none" fill="#fff"/>
  </g>
</svg>
