<svg xmlns="http://www.w3.org/2000/svg" width="14" height="14" viewBox="0 0 14 14"><g transform="translate(-11 -11)"><path d="M18,25a7,7,0,1,1,7-7A7.008,7.008,0,0,1,18,25Zm0-12.923A5.923,5.923,0,1,0,23.923,18,5.929,5.929,0,0,0,18,12.077Z" fill="#cbcbcb"/><path d="M17.5,20a.5.5,0,0,1-.5-.5v-.263a3.164,3.164,0,0,1,1.386-2.526A1.5,1.5,0,1,0,16,15.5a.5.5,0,0,1-1,0,2.5,2.5,0,1,1,3.977,2.018A2.194,2.194,0,0,0,18,19.237V19.5a.5.5,0,0,1-.5.5Z" transform="translate(0.5 0.333)" fill="#cbcbcb"/><circle cx="0.5" cy="0.5" r="0.5" transform="translate(17.5 21.837)" fill="#cbcbcb"/></g></svg>