<svg xmlns="http://www.w3.org/2000/svg" width="19.355" height="19.89" viewBox="0 0 19.355 19.89">
  <path id="_025-settings" data-name="025-settings" d="M31.59,15.095a1.772,1.772,0,0,1-1.77-1.77V13.31a.507.507,0,0,0-.325-.473,5.68,5.68,0,0,1-1.5-.871.51.51,0,0,0-.575-.051l0,0a1.777,1.777,0,0,1-2.414-.668,1.766,1.766,0,0,1,.671-2.411l.007,0a.505.505,0,0,0,.253-.5,5.75,5.75,0,0,1,0-1.623.512.512,0,0,0-.258-.513l-.01-.005a1.766,1.766,0,0,1-.669-2.41A1.777,1.777,0,0,1,27.42,3.11l.035.02a.513.513,0,0,0,.575-.051,5.682,5.682,0,0,1,1.463-.845.509.509,0,0,0,.327-.474,1.77,1.77,0,0,1,3.54,0v.012a.509.509,0,0,0,.324.473,5.684,5.684,0,0,1,1.447.843.513.513,0,0,0,.576.052l.052-.029a1.778,1.778,0,0,1,2.416.667A1.766,1.766,0,0,1,37.5,6.189l-.04.023a.5.5,0,0,0-.253.5,5.757,5.757,0,0,1,.006,1.6.506.506,0,0,0,.253.5l.036.02A1.757,1.757,0,0,1,38.34,9.9a1.776,1.776,0,0,1-2.58,2.011L35.74,11.9a.512.512,0,0,0-.579.054,5.683,5.683,0,0,1-1.478.868.507.507,0,0,0-.322.472v.027A1.772,1.772,0,0,1,31.59,15.095Zm-3.917-4.428a1.7,1.7,0,0,1,1.067.381,4.5,4.5,0,0,0,1.186.691A1.68,1.68,0,0,1,31,13.31v.015a.59.59,0,0,0,1.18,0V13.3a1.681,1.681,0,0,1,1.065-1.569,4.5,4.5,0,0,0,1.172-.688,1.685,1.685,0,0,1,1.9-.164l.019.011a.6.6,0,0,0,.807-.224.586.586,0,0,0-.224-.8h0l-.036-.021a1.674,1.674,0,0,1-.839-1.689,4.575,4.575,0,0,0,0-1.27,1.691,1.691,0,0,1,.838-1.7l.042-.024a.586.586,0,0,0,.225-.8.6.6,0,0,0-.809-.223l-.05.028a1.687,1.687,0,0,1-1.9-.157,4.5,4.5,0,0,0-1.147-.668A1.683,1.683,0,0,1,32.18,1.772V1.76a.59.59,0,0,0-1.18,0,1.682,1.682,0,0,1-1.075,1.572A4.5,4.5,0,0,0,28.766,4a1.687,1.687,0,0,1-1.893.154l-.034-.019a.6.6,0,0,0-.807.224.586.586,0,0,0,.224.8l.011.006a1.7,1.7,0,0,1,.842,1.71,4.569,4.569,0,0,0,0,1.289,1.672,1.672,0,0,1-.839,1.693l-.009.005a.586.586,0,0,0-.28.356.58.58,0,0,0,.055.445.6.6,0,0,0,.809.223,1.683,1.683,0,0,1,.832-.221Zm3.917-.027a3.1,3.1,0,1,1,3.1-3.1A3.1,3.1,0,0,1,31.59,10.64Zm0-5.015a1.918,1.918,0,1,0,1.918,1.918A1.92,1.92,0,0,0,31.59,5.625Z" transform="translate(-13.908 -12.387) rotate(30)" fill="#8b8b8b"/>
</svg>
