<svg xmlns="http://www.w3.org/2000/svg" width="16.629" height="16.629" viewBox="0 0 16.629 16.629"><g transform="translate(-266.885 -57.168)"><g transform="translate(266.885 57.168)"><g transform="translate(4.135 4.135)"><path d="M82.327,76.432A4.193,4.193,0,0,0,79.379,75.2a4.1,4.1,0,0,0-2.947,1.232,4.179,4.179,0,0,0,2.947,7.127,4.1,4.1,0,0,0,2.947-1.232,4.193,4.193,0,0,0,1.232-2.947A4.1,4.1,0,0,0,82.327,76.432Zm-.792,5.1a3.081,3.081,0,1,1,.88-2.156A3.043,3.043,0,0,1,81.535,81.535Z" transform="translate(-75.2 -75.2)" fill="#cbcbcb"/></g><g transform="translate(13.792 7.743)"><path d="M253.066,140.8h-1.694a.572.572,0,1,0,0,1.144h1.694a.572.572,0,0,0,0-1.144Z" transform="translate(-250.8 -140.8)" fill="#cbcbcb"/></g><g transform="translate(7.743 13.792)"><path d="M141.372,250.8a.582.582,0,0,0-.572.572v1.694a.572.572,0,0,0,1.144,0v-1.694A.582.582,0,0,0,141.372,250.8Z" transform="translate(-140.8 -250.8)" fill="#cbcbcb"/></g><g transform="translate(12.021 12.021)"><path d="M220.767,219.975l-1.21-1.21a.56.56,0,1,0-.792.792l1.21,1.21a.56.56,0,0,0,.792-.792Z" transform="translate(-218.6 -218.6)" fill="#cbcbcb"/></g><g transform="translate(7.743)"><path d="M141.372,0a.582.582,0,0,0-.572.572V2.266a.572.572,0,1,0,1.144,0V.572A.582.582,0,0,0,141.372,0Z" transform="translate(-140.8)" fill="#cbcbcb"/></g><g transform="translate(12.043 2.277)"><path d="M221.167,41.565a.558.558,0,0,0-.792,0l-1.21,1.21a.56.56,0,0,0,.792.792l1.21-1.21A.558.558,0,0,0,221.167,41.565Z" transform="translate(-219 -41.4)" fill="#cbcbcb"/></g><g transform="translate(0 7.743)"><path d="M2.266,140.8H.572a.582.582,0,0,0-.572.572.568.568,0,0,0,.572.572H2.266a.572.572,0,1,0,0-1.144Z" transform="translate(0 -140.8)" fill="#cbcbcb"/></g><g transform="translate(2.255 12.021)"><path d="M43.167,218.765a.557.557,0,0,0-.792,0l-1.21,1.21a.56.56,0,0,0,.792.792l1.21-1.21A.558.558,0,0,0,43.167,218.765Z" transform="translate(-41 -218.6)" fill="#cbcbcb"/></g><g transform="translate(2.255 2.277)"><path d="M43.167,42.775l-1.21-1.21a.56.56,0,0,0-.792.792l1.21,1.21a.56.56,0,0,0,.792-.792Z" transform="translate(-41 -41.4)" fill="#cbcbcb"/></g></g></g></svg>