<svg xmlns="http://www.w3.org/2000/svg" width="14.666" height="17.947" viewBox="0 0 14.666 17.947"><g transform="translate(-0.019 -1.151)"><path d="M12.913,41.381h-.026a1.454,1.454,0,0,0-.98.372,1.528,1.528,0,0,0-1.419-1.035,1.472,1.472,0,0,0-1.052.452,1.506,1.506,0,0,0-1.344-.86H8.064A1.38,1.38,0,0,0,7.2,40.6V36.948a1.567,1.567,0,0,0-1.522-1.6,1.564,1.564,0,0,0-1.518,1.6l-.007,7.244-.41-.5a2.068,2.068,0,0,0-1.461-.767,2.035,2.035,0,0,0-1.524.539l-.357.3a.317.317,0,0,0-.079.39l3.468,6.666A3.576,3.576,0,0,0,6.937,52.8h3.908v0a3.721,3.721,0,0,0,3.59-3.831c0-.945,0-1.649,0-2.219,0-1.527,0-2.09,0-3.772A1.556,1.556,0,0,0,12.913,41.381Zm.882,5.359c0,.571,0,1.278,0,2.222a3.1,3.1,0,0,1-2.966,3.2H6.937a2.944,2.944,0,0,1-2.586-1.637L1,44.086l.165-.138.012-.011a1.407,1.407,0,0,1,1.057-.38A1.439,1.439,0,0,1,3.25,44.1l.971,1.181a.317.317,0,0,0,.562-.2l.006-8.129a.933.933,0,0,1,.888-.965.933.933,0,0,1,.888.966v4.9c0,.017,0,.034,0,.052s0,.015,0,.022v2.1a.317.317,0,0,0,.634,0V41.859a.889.889,0,0,1,.865-.915h.028a.926.926,0,0,1,.89.956v1.917a.317.317,0,0,0,.634,0v-1.5a.877.877,0,1,1,1.744,0v1.419a.317.317,0,1,0,.634,0v-.769a.921.921,0,0,1,.892-.95h.026a.92.92,0,0,1,.881.955C13.8,44.651,13.8,45.213,13.795,46.739Zm0,0" transform="translate(0 -33.947)" fill="#cbcbcb" stroke="#cbcbcb" stroke-width="0.5"/></g></svg>