<svg id="aim_1_" data-name="aim (1)" xmlns="http://www.w3.org/2000/svg" width="16.587" height="16.587" viewBox="0 0 16.587 16.587">
  <path id="Caminho_487" data-name="Caminho 487" d="M8.911,15.822a6.911,6.911,0,1,1,6.911-6.911A6.919,6.919,0,0,1,8.911,15.822Zm0-12.786a5.874,5.874,0,1,0,5.874,5.874A5.881,5.881,0,0,0,8.911,3.037Z" transform="translate(-0.618 -0.618)" fill="#cbcbcb"/>
  <path id="Caminho_488" data-name="Caminho 488" d="M11.768,3.456a.519.519,0,0,1-.518-.518V.518a.518.518,0,0,1,1.037,0V2.937A.519.519,0,0,1,11.768,3.456Z" transform="translate(-3.475)" fill="#cbcbcb"/>
  <path id="Caminho_489" data-name="Caminho 489" d="M21.937,12.287H19.518a.518.518,0,0,1,0-1.037h2.419a.518.518,0,0,1,0,1.037Z" transform="translate(-5.869 -3.475)" fill="#cbcbcb"/>
  <path id="Caminho_490" data-name="Caminho 490" d="M11.768,22.456a.519.519,0,0,1-.518-.518V19.518a.518.518,0,0,1,1.037,0v2.419A.519.519,0,0,1,11.768,22.456Z" transform="translate(-3.475 -5.869)" fill="#cbcbcb"/>
  <path id="Caminho_491" data-name="Caminho 491" d="M2.937,12.287H.518a.518.518,0,0,1,0-1.037H2.937a.518.518,0,1,1,0,1.037Z" transform="translate(0 -3.475)" fill="#cbcbcb"/>
  <path id="Caminho_492" data-name="Caminho 492" d="M11.073,13.147a2.073,2.073,0,1,1,2.073-2.073A2.076,2.076,0,0,1,11.073,13.147Zm0-3.11a1.037,1.037,0,1,0,1.037,1.037A1.038,1.038,0,0,0,11.073,10.037Z" transform="translate(-2.78 -2.78)" fill="#cbcbcb"/>
</svg>
