<svg xmlns="http://www.w3.org/2000/svg" width="14.901" height="13.659" viewBox="0 0 14.901 13.659"><g transform="translate(0 -1)"><g transform="translate(2.529 5.967)"><path d="M6.091,9.931H4.539a.466.466,0,1,1,0-.931H6.091a.466.466,0,1,1,0,.931Z" transform="translate(-4.073 -9)" fill="#cbcbcb"/></g><g transform="translate(6.875 5.967)"><path d="M16.2,9.931H11.539a.466.466,0,1,1,0-.931H16.2a.466.466,0,1,1,0,.931Z" transform="translate(-11.073 -9)" fill="#cbcbcb"/></g><g transform="translate(2.529 8.45)"><path d="M6.091,13.931H4.539a.466.466,0,1,1,0-.931H6.091a.466.466,0,1,1,0,.931Z" transform="translate(-4.073 -13)" fill="#cbcbcb"/></g><g transform="translate(6.875 8.45)"><path d="M16.2,13.931H11.539a.466.466,0,1,1,0-.931H16.2a.466.466,0,1,1,0,.931Z" transform="translate(-11.073 -13)" fill="#cbcbcb"/></g><g transform="translate(2.529 10.934)"><path d="M6.091,17.931H4.539a.466.466,0,0,1,0-.931H6.091a.466.466,0,0,1,0,.931Z" transform="translate(-4.073 -17)" fill="#cbcbcb"/></g><g transform="translate(6.875 10.934)"><path d="M16.2,17.931H11.539a.466.466,0,1,1,0-.931H16.2a.466.466,0,0,1,0,.931Z" transform="translate(-11.073 -17)" fill="#cbcbcb"/></g><g transform="translate(0 1)"><path d="M13.193,14.659H1.707A1.709,1.709,0,0,1,0,12.951V2.707A1.709,1.709,0,0,1,1.707,1H13.193A1.709,1.709,0,0,1,14.9,2.707V12.951A1.709,1.709,0,0,1,13.193,14.659ZM1.707,1.931a.777.777,0,0,0-.776.776V12.951a.777.777,0,0,0,.776.776H13.193a.777.777,0,0,0,.776-.776V2.707a.777.777,0,0,0-.776-.776Z" transform="translate(0 -1)" fill="#cbcbcb"/></g><g transform="translate(0 3.173)"><path d="M14.435,5.431H.466a.466.466,0,1,1,0-.931H14.435a.466.466,0,1,1,0,.931Z" transform="translate(0 -4.5)" fill="#cbcbcb"/></g></g></svg>