<svg xmlns="http://www.w3.org/2000/svg" width="625.74" height="117.208" viewBox="0 0 625.74 117.208">
  <g id="Grupo_278" data-name="Grupo 278" transform="translate(-712.689 -1720.242)">
    <g id="Grupo_50" data-name="Grupo 50" transform="translate(-2506.152 1436.334)">
      <path id="Caminho_149" data-name="Caminho 149" d="M3355.461,300.508l-.576,3.194q-.95,7.087-2.2,14.008-.347,1.916-.756,3.878t-.667,4q-.2,1.723-.33,3.349t-.242,3.475l-.515,6.5a3.94,3.94,0,0,1-.539,1.772,11.191,11.191,0,0,1-1.034,1.463,2.314,2.314,0,0,1-2.172.763,2.1,2.1,0,0,1-1.536-1.543,8.413,8.413,0,0,1-.623-2.641q-.088-1.336-.157-2.778,0-3.075.065-6.145t.191-6.233a55.786,55.786,0,0,1,.6-6.984q.517-3.478,1.134-6.888.423-2.34.9-4.676t1.006-4.656a2.078,2.078,0,0,0,.009-.659.454.454,0,0,1-.2-.091.761.761,0,0,0-.309-.111q-2.238-.405-4.464-.861t-4.463-.861a4.677,4.677,0,0,1-1.676-1.072,2.433,2.433,0,0,1-.688-1.664,2.716,2.716,0,0,1,2.193-3.012.851.851,0,0,1,.338-.049.826.826,0,0,0,.339-.049,1.926,1.926,0,0,1,1.432-.621,11.509,11.509,0,0,1,1.616.182q1.508.164,2.913.306a14.677,14.677,0,0,0,2.971-.013,2.8,2.8,0,0,0,.44-.911q.148-.521.913-.494a1.118,1.118,0,0,1,.965.449,4.882,4.882,0,0,1,.528,1.03,14.7,14.7,0,0,1,1.761-.012,14.214,14.214,0,0,0,1.762-.012q2.883-.14,5.826.008t5.875.346a13.211,13.211,0,0,1,3.156.79,1.692,1.692,0,0,1,.6.328,1.741,1.741,0,0,1,1.028,1.616,5.719,5.719,0,0,0,.4,2.051,2.265,2.265,0,0,1-.26,2.043,4.26,4.26,0,0,1-3.385,1.7q-1.87-.008-3.78-.077t-3.8.029q-1.213,0-2.294-.084T3355.461,300.508Z" transform="translate(-117.366 -6.482)" fill="#484444"/>
      <path id="Caminho_150" data-name="Caminho 150" d="M3387.518,335.209c-.4.145-.748.263-1.058.35l-.931.263q-.151,1.954-.472,3.931t-.47,3.931q.029,1,.072,1.942t.072,1.941a2.581,2.581,0,0,1-1.735,2.754,3.1,3.1,0,0,1-1.815-.014,2.576,2.576,0,0,1-1.4-1.037q-.537-.652-1.179-1.325a1.664,1.664,0,0,1-.973-1.837,14.809,14.809,0,0,1-.006-1.709c.03-.545.062-1.106.1-1.688q.251-2.485.517-4.749t.5-4.641a17.691,17.691,0,0,1,.189-2.443,18.253,18.253,0,0,0,.188-2.443q.168-2.059.352-4.174t.352-4.173q.068-1.529.087-3.068a28.445,28.445,0,0,1,.193-3.047q.3-2.145.755-4.262t.967-4.222a2,2,0,0,1,1.786-1.864.831.831,0,0,1,.339-.045.841.841,0,0,0,.339-.046,2.43,2.43,0,0,1,.288-2.094,17.31,17.31,0,0,1,1.289-1.572,12.227,12.227,0,0,1,5.344-2.62q.783-.07,1.516-.153t1.517-.153q1.209.01,2.27-.065a5.1,5.1,0,0,1,2.19.362,7.494,7.494,0,0,1,4.1,2.761,13.643,13.643,0,0,1,2.229,4.5,2.753,2.753,0,0,1,.1.9q-.029.435-.021.987a8.636,8.636,0,0,1-.8,4.8l-.4,2.126a16.981,16.981,0,0,1-2.614,6.222,28.5,28.5,0,0,0-1.892,3,28.794,28.794,0,0,1-1.891,3,30.84,30.84,0,0,1-2.021,2.81,20.757,20.757,0,0,1-2.532,2.6q.71.906,1.313,1.791a8.984,8.984,0,0,0,1.352,1.579,26.855,26.855,0,0,1,2.485,3.446q1.045,1.743,2.146,3.492.734,1.353,1.543,2.605t1.563,2.5c.215.409.446.839.691,1.288a6.672,6.672,0,0,1,.565,1.373,2.923,2.923,0,0,1,.072,1.942,2.333,2.333,0,0,1-1.27,1.465,3.089,3.089,0,0,1-1.981.285,2,2,0,0,1-1.487-1.164,11.178,11.178,0,0,0-2.289-3.023,37.781,37.781,0,0,1-2.669-2.765,34.366,34.366,0,0,0-2.78-3.337,19.161,19.161,0,0,1-2.635-3.529,9.233,9.233,0,0,1-.745-1.3q-.315-.664-.618-1.385a4.232,4.232,0,0,0-.354-.452A1.957,1.957,0,0,1,3387.518,335.209Zm-1.168-8.924q1.33-.628,2.449-1.3a9.663,9.663,0,0,0,2.085-1.7q1.152-1.433,2.317-2.919a27.856,27.856,0,0,0,2.145-3.173,19.643,19.643,0,0,0,1.59-3.443,8.5,8.5,0,0,0,.42-3.665,3.217,3.217,0,0,0-.567-1.649,2.643,2.643,0,0,0-1.454-1.048,15.759,15.759,0,0,0-6.859-.421,2.112,2.112,0,0,0-1.141.5,10.1,10.1,0,0,1-.969.752,1.008,1.008,0,0,0-.164.575,3.88,3.88,0,0,0,.028.721q.031,3.312.053,6.675t-.032,6.547q.05.892.05,1.772C3386.3,325.1,3386.314,325.691,3386.349,326.285Z" transform="translate(-124.037 -7.526)" fill="#484444"/>
      <path id="Caminho_151" data-name="Caminho 151" d="M3430.136,343.828a13.94,13.94,0,0,1-4.549.712q-2.2-.042-4.424.074c-.253.54-.494,1.025-.726,1.457s-.508.913-.831,1.437a15.772,15.772,0,0,1-.945,2.021q-.5.893-1.03,1.893a3.291,3.291,0,0,1-1.563,1.515,2.877,2.877,0,0,1-2.146-.584,1.4,1.4,0,0,0-.974.471,2.5,2.5,0,0,1-2.145-.308,2.064,2.064,0,0,1-.158-2.016q.48-1.337.962-2.678a23.864,23.864,0,0,1,1.2-2.744q1.573-3.551,3.182-6.987t3.16-6.88q1.405-3.254,2.833-6.614t2.834-6.613q1.007-2.338,2.1-4.552t2.1-4.552a3.8,3.8,0,0,1,1.733-1.536q2.5-.944,3.168,1.279a9.485,9.485,0,0,1,.871,4.58c-.041.581-.054,1.129-.045,1.645s.029,1.072.062,1.666a6.976,6.976,0,0,1,.122,1.07,4.81,4.81,0,0,1-.091,1.03,38.383,38.383,0,0,0,.013,5.019q.171,2.514.247,4.954a4.747,4.747,0,0,0,.058.838,1.6,1.6,0,0,1-.008.6,18.1,18.1,0,0,0,.277,4.519,31.544,31.544,0,0,1,.53,4.349q.4,3.606.576,7.223t.089,7.459a7.892,7.892,0,0,1-.318,2.2,3.94,3.94,0,0,1-1.233,1.8,2.363,2.363,0,0,1-2.023.763,2.684,2.684,0,0,1-1.841-1.3,6.493,6.493,0,0,1-1.206-3.432q.1-1.634.037-3.3t-.09-3.214a4.557,4.557,0,0,1,.067-1.476A8.232,8.232,0,0,0,3430.136,343.828Zm.228-5.688q.033-1.867-.038-3.48t-.292-3.309a13.366,13.366,0,0,1-.436-2.29q-.111-1.122-.2-2.355a.486.486,0,0,0-.076-.456.8.8,0,0,1-.2-.371l-.105-.021q-1.114,2.871-2.285,5.784t-2.54,5.954q1.636.1,3.089.272T3430.364,338.139Z" transform="translate(-129.332 -9.169)" fill="#484444"/>
      <path id="Caminho_152" data-name="Caminho 152" d="M3459.626,335.991q-.126,1.19-.333,2.25t-.333,2.251q-.354,2.358-.8,4.64t-.719,4.766q-.248,2.378-.4,4.829t-.421,4.936a22.077,22.077,0,0,1-.158,4.16,2.25,2.25,0,0,1-1.373,1.935,2.166,2.166,0,0,1-2.271-.227,7.791,7.791,0,0,1-1.34-1.312q-.578-.719-1.087-1.482a.982.982,0,0,1-.195-1.252,18.292,18.292,0,0,0,.563-3.418q.1-1.634.33-3.354.207-1.614.4-3.174a21.96,21.96,0,0,0,.171-3.11q.078-1.528.288-3.141t.309-3.248q.12-1.74.3-3.471t.4-3.449q.308-2.7.621-5.393t.833-5.35q.292-1.486.7-3t.914-2.964a5.1,5.1,0,0,1,1.861-2.17,2.35,2.35,0,0,1,1.676-.387,1.97,1.97,0,0,1,1.424.888q.255.38.458.752a3.318,3.318,0,0,1,.311.944q.344,1.613.625,3.266t.625,3.266q.344,1.613.572,3.256a19.813,19.813,0,0,0,.7,3.171q.492,1.973,1.115,3.859t1.241,3.774q.918,2.608,2.032,5.087t2.157,5q.619,1.338,1.165,2.767t1.165,2.766a2.118,2.118,0,0,1,.267.6,2.56,2.56,0,0,0,.352.731,1.67,1.67,0,0,0,.338-.6l2.969-15.076q.294-1.486.67-2.846t.757-2.719q.479-1.891.806-3.812a25.782,25.782,0,0,1,.89-3.685q.693-2.4,1.344-4.864a26.533,26.533,0,0,1,1.768-4.78,3.407,3.407,0,0,1,1.45-1.48,2.2,2.2,0,0,1,1.941-.059,2.434,2.434,0,0,1,1.425,1.163,2.738,2.738,0,0,1,.282,1.931q-.252,1.827-.468,3.492t-.466,3.492l-1.777,9.025q-.357,2.357-.793,4.586t-.9,4.566q-.463,1.785-.86,3.526t-.86,3.525q-.612,1.976-1.049,3.929t-.964,4.057a11.156,11.156,0,0,0-.419,1.847q-.125.913-.292,1.762c-.141.341-.282.68-.421,1.02s-.283.68-.422,1.02c-.212.327-.448.684-.707,1.074s-.539.776-.835,1.159a2.322,2.322,0,0,1-2.406,1.015,3.116,3.116,0,0,1-2.308-1.723q-.662-1.673-1.409-3.2t-1.411-3.2q-.749-1.8-1.443-3.593t-1.464-3.487q-.791-1.588-1.495-3.052t-1.282-3.01a49.9,49.9,0,0,1-2.062-4.927q-.89-2.491-1.6-5.057a1.4,1.4,0,0,1-.224-.541,1.487,1.487,0,0,0-.225-.54C3459.845,336,3459.767,336.019,3459.626,335.991Z" transform="translate(-135.713 -10.582)" fill="#484444"/>
      <path id="Caminho_153" data-name="Caminho 153" d="M3510.573,370.467a2.643,2.643,0,0,0,.9-.928q.262-.5.472-1.011a6.726,6.726,0,0,0,.434-2.506q-.029-1.272-.1-2.61a16.129,16.129,0,0,0-1.061-4.176q-.818-2.032-1.761-3.98a67.928,67.928,0,0,1-2.856-6.565q-1.269-3.389-2.368-6.8c-.061-.452-.123-.887-.188-1.3s-.135-.815-.207-1.2q-.07-.783-.166-1.41t-.167-1.411a5.741,5.741,0,0,1,.025-3.522,1.953,1.953,0,0,1,1.16-1.428,3.535,3.535,0,0,0,.885-1.151,1.757,1.757,0,0,1,1.585-1.345,12.019,12.019,0,0,1,7.9.215q1.511.736,2.925,1.4a10.245,10.245,0,0,1,2.716,1.907,11.134,11.134,0,0,1,2.293,2.376,29.584,29.584,0,0,1,1.765,2.824c.37.734.764,1.455,1.178,2.159a23.09,23.09,0,0,1,1.158,2.264,13.912,13.912,0,0,1,.749,1.249A2.774,2.774,0,0,1,3528.1,345a4.189,4.189,0,0,1-.343,1.477,2.29,2.29,0,0,1-1.024,1.013,2.322,2.322,0,0,1-2.888-.453l-.277-.274a2.632,2.632,0,0,1-2.7-.3.5.5,0,0,0-.362-.126,1.159,1.159,0,0,1-.382-.019,1.534,1.534,0,0,1-1.914-.924,8.466,8.466,0,0,1-.5-.815,3.147,3.147,0,0,1-.269-.879,15.407,15.407,0,0,0-1.071-1.862,7.837,7.837,0,0,0-1.451-1.606q-.768-.589-1.534-1.18t-1.534-1.181a3.725,3.725,0,0,0-1.446-.5c.2.48.394,1,.58,1.546s.367,1.137.541,1.759q1.03,2.627,1.958,5.232t1.852,5.211a7.021,7.021,0,0,0,1.307,2.35,30.733,30.733,0,0,1,2.174,4.116q.913,2.109,1.709,4.246a13.712,13.712,0,0,1,.588,2.926q.112,1.4.269,2.864l-.311,1.594a2.869,2.869,0,0,0-.47,1.562q.015.775-.044,1.645c-.083.424-.172.886-.27,1.381a6.749,6.749,0,0,1-.354,1.254,4.193,4.193,0,0,1-2.49,2.6,7.84,7.84,0,0,1-3.668.719,18.47,18.47,0,0,1-8.954-3.839,7.825,7.825,0,0,1-1.9-1.582q-.811-.929-1.622-1.86a29.612,29.612,0,0,1-4.125-5.708,42.145,42.145,0,0,1-2.876-6.459,2.374,2.374,0,0,1,.369-2.464,1.959,1.959,0,0,1,2.14-.8q1.486.289,1.6,1.413a2.084,2.084,0,0,0,1.387,1.372,2.344,2.344,0,0,1,.948.791,4.589,4.589,0,0,1,.653,1.174,22.343,22.343,0,0,0,3.281,4.663q1.91,2.082,3.958,4.023a1.656,1.656,0,0,0,.532.379.96.96,0,0,1,.426.359A8.2,8.2,0,0,0,3510.573,370.467Z" transform="translate(-142.814 -12.633)" fill="#484444"/>
      <path id="Caminho_154" data-name="Caminho 154" d="M3548.63,343.974a31.584,31.584,0,0,0-.973,5.157,32.356,32.356,0,0,0-.1,5.211l.532.1a30.311,30.311,0,0,0,3.682.034q1.834-.093,3.51-.218a27.958,27.958,0,0,1,2.979-.32q1.388-.068,2.851-.232a12.19,12.19,0,0,1,2.233.422,1.6,1.6,0,0,1,1.122.763,2.847,2.847,0,0,1-1.281,4.162,8.227,8.227,0,0,1-1.922.849q-.933.266-1.969.51a18.759,18.759,0,0,1-5.422,1.013,52.321,52.321,0,0,1-5.54-.11,3.015,3.015,0,0,1-.712-.024,1.938,1.938,0,0,0-.605,0l-.28,1.489q-.422,2.233-.78,4.423t-.673,4.442q-.3,1.6-.656,3.18a21.192,21.192,0,0,0-.463,3.327q-.2,1.614-.294,3.3c-.066,1.127-.1,2.274-.1,3.449-.038.58-.066,1.125-.088,1.636a2.069,2.069,0,0,1-.706,1.408.485.485,0,0,0-.123.362,1.236,1.236,0,0,1-.018.383,6.179,6.179,0,0,1,.118,1.123c0,.367.009.735.012,1.1a4.287,4.287,0,0,1,.03.721,1.549,1.549,0,0,1-.185.681,2.024,2.024,0,0,1-.739,1.292,2.653,2.653,0,0,1-1.257.534,2.574,2.574,0,0,1-2.458-1.565.313.313,0,0,1-.066-.232.82.82,0,0,0-.046-.339q-.232-1.7-.4-3.434a15.811,15.811,0,0,1,.068-3.567,15.256,15.256,0,0,0,.049-2.3,14.648,14.648,0,0,1,.049-2.3q.188-2.167.5-4.42t.631-4.506q.286-2.7.631-5.387t.632-5.386a1.824,1.824,0,0,0-.006-.552l-1.49-.281a2.2,2.2,0,0,1-1.991-1.7,2.082,2.082,0,0,1,.192-1.891,2.875,2.875,0,0,1,1.706-1.164,3.859,3.859,0,0,1,1.018-.138,9.631,9.631,0,0,0,1.229-.1q.368-3.124.792-6.238t.791-6.238a1.721,1.721,0,0,1-.415-.133,1.8,1.8,0,0,0-.415-.133l-2.339-.441a2.83,2.83,0,0,1-1.6-1.129,2.617,2.617,0,0,1,.662-3.509,3.4,3.4,0,0,1,1.925-.573l.745.141a2.136,2.136,0,0,0,1.837.181,9.237,9.237,0,0,0,1.719-.942,2.207,2.207,0,0,1,1.343-.407,1.673,1.673,0,0,1,1.25.676.7.7,0,0,0,.81.373q3.163.159,6.265.357t6.178.23a18.629,18.629,0,0,1,1.975.043l1.954.148a.848.848,0,0,0,.276,0,.248.248,0,0,1,.256.1,5.964,5.964,0,0,0,2.711.512q1.389-.068,2.832-.127a13.833,13.833,0,0,1,1.921.033,18.347,18.347,0,0,1,1.881.245,4.347,4.347,0,0,1,1.444,1.1,2.66,2.66,0,0,1,.687,1.616,2.95,2.95,0,0,1-.365,1.638,2.683,2.683,0,0,1-1.26,1.138c-.383.076-.707.142-.974.2s-.594.127-.974.2q-1.037.245-2.054.382t-2.141.257q-1.233.1-2.63.22t-2.63.219q-1.335.078-2.6.06t-2.473-.026a20.637,20.637,0,0,1-2.549-.206q-1.233-.176-2.422-.292c-.582-.035-1.158-.09-1.732-.162s-1.151-.124-1.73-.161Z" transform="translate(-149.69 -13.745)" fill="#484444"/>
      <path id="Caminho_155" data-name="Caminho 155" d="M3608.907,368.534a29.969,29.969,0,0,1-9.831,17.479,23.069,23.069,0,0,1-3.946,2.7,15.95,15.95,0,0,1-4.413,1.629,15.721,15.721,0,0,1-3.706.436,7.635,7.635,0,0,1-3.671-.986,7.882,7.882,0,0,1-2.294-1.62,8.77,8.77,0,0,1-1.521-2.251,21.2,21.2,0,0,1-2.342-6.575,26.644,26.644,0,0,1-.291-6.977,24.144,24.144,0,0,1,2.786-10.054,22.468,22.468,0,0,1,2.346-3.593q1.345-1.682,2.542-3.448a15.115,15.115,0,0,1,4.767-4.534,10.138,10.138,0,0,1,4.781-1.838,12.125,12.125,0,0,1,5.214.658,10.16,10.16,0,0,1,3.766,1.992,16.153,16.153,0,0,1,2.9,3.157,5.122,5.122,0,0,1,.623,1.431q.573,1.092,1.033,2.218t.906,2.306a8.148,8.148,0,0,1,.687,2.926q.061,1.495.008,3.024Zm-7.216-2.06a4.811,4.811,0,0,0,.293-2.256,17.394,17.394,0,0,0-.384-2.158,6.8,6.8,0,0,0-3.643-4.828,10.927,10.927,0,0,0-4.261-.762,4.2,4.2,0,0,0-2.861,1.247q-.688.759-1.351,1.408a17.532,17.532,0,0,0-1.225,1.32,36.5,36.5,0,0,0-2.819,4.388,13.9,13.9,0,0,0-1.578,4.829q-.24,1.936-.377,3.945a16.977,16.977,0,0,0,.176,3.934,13.313,13.313,0,0,0,.242,2.022c.135.683.315,1.413.544,2.185a4.893,4.893,0,0,0,3.754,2.98,2.014,2.014,0,0,0,1.824-.059,10.173,10.173,0,0,0,1.444-1.006,30.379,30.379,0,0,0,3.562-3.32,22.029,22.029,0,0,0,2.93-4.094A41.132,41.132,0,0,0,3601.691,366.473Z" transform="translate(-156.137 -15.903)" fill="#484444"/>
      <path id="Caminho_156" data-name="Caminho 156" d="M3629.378,380.953c-.392.154-.742.28-1.049.375s-.618.19-.924.285q-.106,1.958-.378,3.941t-.38,3.941q.054,1,.118,1.939t.118,1.939a2.581,2.581,0,0,1-1.67,2.8,3.1,3.1,0,0,1-1.814.028,2.576,2.576,0,0,1-1.424-1c-.367-.425-.772-.857-1.21-1.3a1.665,1.665,0,0,1-1.016-1.814,14.845,14.845,0,0,1-.046-1.708c.018-.546.036-1.108.061-1.69q.193-2.49.405-4.759t.388-4.653a17.521,17.521,0,0,1,.131-2.446,18.063,18.063,0,0,0,.131-2.446q.122-2.062.254-4.181t.255-4.181q.031-1.53.014-3.068a28.679,28.679,0,0,1,.122-3.052q.247-2.152.654-4.279t.867-4.243a2,2,0,0,1,1.742-1.906.858.858,0,0,1,.338-.054.835.835,0,0,0,.339-.054,2.432,2.432,0,0,1,.237-2.1,16.866,16.866,0,0,1,1.254-1.6,12.216,12.216,0,0,1,5.28-2.745q.781-.089,1.513-.188t1.512-.189q1.208-.018,2.267-.117a5.113,5.113,0,0,1,2.2.309,7.5,7.5,0,0,1,4.165,2.665,13.617,13.617,0,0,1,2.334,4.446,2.711,2.711,0,0,1,.126.9c-.012.291-.011.621,0,.987a8.614,8.614,0,0,1-.689,4.822l-.354,2.136a16.992,16.992,0,0,1-2.467,6.281,28.591,28.591,0,0,0-1.82,3.044,28.876,28.876,0,0,1-1.821,3.044,31.108,31.108,0,0,1-1.954,2.856,20.854,20.854,0,0,1-2.47,2.662q.73.89,1.354,1.76a9.035,9.035,0,0,0,1.388,1.546,26.856,26.856,0,0,1,2.565,3.386q1.086,1.718,2.228,3.441.766,1.335,1.6,2.569t1.621,2.463c.224.4.467.828.722,1.271a6.707,6.707,0,0,1,.6,1.361,2.913,2.913,0,0,1,.117,1.939,2.329,2.329,0,0,1-1.235,1.495,3.091,3.091,0,0,1-1.974.331,2.005,2.005,0,0,1-1.514-1.128,11.145,11.145,0,0,0-2.36-2.969,37.475,37.475,0,0,1-2.733-2.7,34.328,34.328,0,0,0-2.859-3.271,19.087,19.087,0,0,1-2.716-3.466,9.314,9.314,0,0,1-.775-1.28c-.22-.438-.437-.9-.65-1.37a4.214,4.214,0,0,0-.366-.444A1.949,1.949,0,0,1,3629.378,380.953ZM3628,372.059q1.315-.658,2.418-1.354a9.684,9.684,0,0,0,2.044-1.745q1.12-1.461,2.248-2.974a27.876,27.876,0,0,0,2.07-3.222,19.581,19.581,0,0,0,1.508-3.479,8.527,8.527,0,0,0,.335-3.674,3.228,3.228,0,0,0-.606-1.637,2.641,2.641,0,0,0-1.478-1.012,15.771,15.771,0,0,0-6.867-.26,2.115,2.115,0,0,0-1.129.526,10.048,10.048,0,0,1-.951.774,1.006,1.006,0,0,0-.15.578,3.9,3.9,0,0,0,.045.721q.109,3.309.21,6.671t.123,6.546q.071.891.09,1.77T3628,372.059Z" transform="translate(-163.052 -14.865)" fill="#484444"/>
      <path id="Caminho_157" data-name="Caminho 157" d="M3684.207,379.29a1.636,1.636,0,0,0-.362.6,2,2,0,0,1-.239.513,19.307,19.307,0,0,0-2.441,3.962q-.965,2.1-1.921,4.147a1.323,1.323,0,0,1-.462.917,3.761,3.761,0,0,0-1.346,1.716,18.1,18.1,0,0,1-.826,1.9c-.2.336-.364.622-.508.855s-.308.485-.492.748a2.407,2.407,0,0,1-2.881,1,2.283,2.283,0,0,1-1.689-2.654l.094-.643a2.052,2.052,0,0,1-.928-1.121q-.228-.69-.439-1.486-.437-2.25-.816-4.494a43.393,43.393,0,0,0-1.032-4.526,13.526,13.526,0,0,1-.672-2.5,21.86,21.86,0,0,0-.565-2.489,3.266,3.266,0,0,1-.235-.636,3.474,3.474,0,0,0-.234-.637c-.135.418-.265.8-.387,1.147a6.019,6.019,0,0,0-.28,1.162q-1.118,3.884-2.11,7.675t-1.988,7.583a10.18,10.18,0,0,0-.5,2.278,16.956,16.956,0,0,1-.391,2.293,3.911,3.911,0,0,0-.425,1.032,4,4,0,0,1-.426,1.031,2.206,2.206,0,0,1-1.9,1.416,2.659,2.659,0,0,1-2.215-.926,1.768,1.768,0,0,0-.961-.907,2.143,2.143,0,0,1-1.367-2.606q.527-2.109,1.042-4.113t1.041-4.113q.944-3.47,1.839-6.948t1.748-7.071q1.069-3.56,1.917-7.1a41.377,41.377,0,0,1,2.33-6.931,2.821,2.821,0,0,0,.315-2.142,1.978,1.978,0,0,1-.1-.451,2.224,2.224,0,0,1,.026-.544q-.059-1.1,1.2-1.465a1.338,1.338,0,0,1,1.65.679,2.963,2.963,0,0,0,.624.966,10.742,10.742,0,0,0,.87.783l.182.246a3.79,3.79,0,0,0,1.8,1.9,1.191,1.191,0,0,1,.35.6l.227.69a5.24,5.24,0,0,1-.562,3.089,2.694,2.694,0,0,0-.157,1.071q.646,3.048,1.346,6.1t1.331,6.211q.135.567.363,1.256a7.515,7.515,0,0,1,.315,1.578,3.229,3.229,0,0,1,.269-.343.68.68,0,0,0,.163-.36q1.54-3.054,3.236-6.032t3.542-5.879q1.584-2.61,3.049-5.13t3.049-5.13a6.072,6.072,0,0,1,.793-1.305,6.128,6.128,0,0,0,.794-1.306,2.089,2.089,0,0,1,1.2-.7,1.1,1.1,0,0,1,1.13.494q.564.63,1.12,1.313a2.407,2.407,0,0,1,.522,1.662.923.923,0,0,1,.129.238.788.788,0,0,0,.129.237,3.012,3.012,0,0,1,.9,1.717,6.691,6.691,0,0,1-.007,1.913,19.028,19.028,0,0,1-.308,2.47,18.669,18.669,0,0,0-.308,2.471q-.162,1.837-.22,3.74t-.129,3.864q-.031,3.933-.069,7.92t.008,8.149q-.069,1.958.024,3.94t.008,4.048q.021,2.082.16,4.125t.161,4.125a2.788,2.788,0,0,1-.5,1.567,2.195,2.195,0,0,1-1.388.89,3.107,3.107,0,0,1-1.606-.236,2.409,2.409,0,0,1-1.144-1.152,1.909,1.909,0,0,1-.081-.56,2.035,2.035,0,0,0-.082-.559.784.784,0,0,1-.129-.237.969.969,0,0,0-.128-.238,2.2,2.2,0,0,1-1.381-1.405,10.743,10.743,0,0,1-.337-1.8q-.133-1.331-.2-2.763t-.089-2.747q.043-3.275-.082-6.519t-.527-6.475q-.043-1.209-.1-2.312t-.114-2.2A.31.31,0,0,1,3684.207,379.29Z" transform="translate(-168.452 -16.69)" fill="#484444"/>
      <path id="Caminho_158" data-name="Caminho 158" d="M3727.2,400.438a59.051,59.051,0,0,1-7.479.591q-3.713.054-7.51-.066-.357,1.159-.755,2.254c-.269.731-.516,1.448-.743,2.146q-.634,1.671-1.145,3.244t-1.144,3.243c-.187.341-.349.648-.49.923a3.577,3.577,0,0,1-.585.8,1.822,1.822,0,0,1-2.465.581,1.9,1.9,0,0,1-.917-2.4,1.208,1.208,0,0,1,.17-.524,15.127,15.127,0,0,0,.86-3.6,16.124,16.124,0,0,1,.487-3.212q.4-1.587.917-3.161a1.689,1.689,0,0,0-.044-1.476,5.385,5.385,0,0,0-.848-1.135q-1.568-1.492-.96-2.946a2.9,2.9,0,0,1,1.144-1.39,3.046,3.046,0,0,1,1.7-.563l.968.113c.235-.77.463-1.487.689-2.152s.451-1.38.688-2.152q1.4-4.518,2.759-9.1t2.772-9.208q.718-2.42,1.441-4.842t1.536-4.723q.354-1.156.75-2.2a7.952,7.952,0,0,1,1.167-2.043,3.767,3.767,0,0,0,.465-.708,1.693,1.693,0,0,1,.679-.683,2.3,2.3,0,0,1,1.164-.626,8.866,8.866,0,0,0,1.078-.363c.343-.14.706-.3,1.091-.471a2.8,2.8,0,0,1,3.635,1.518,18.239,18.239,0,0,1,1.094,4.6q.283,2.213.515,4.418t.515,4.419q.354,4.4.654,8.794t.656,8.794q.145,1.544.351,3.037t.458,3.05a1.119,1.119,0,0,0,.341.8,3.107,3.107,0,0,1,.456,3.541,1.634,1.634,0,0,0-.221.954q.245,2.537.393,5t.393,5a30.945,30.945,0,0,1,.512,3.982,11.448,11.448,0,0,1,.028,1.148c-.012.4-.041.813-.091,1.242a2.211,2.211,0,0,1-1.985,2.054,2.239,2.239,0,0,1-2.415-1.7,21.506,21.506,0,0,1-.882-3.154q-.308-1.56-.548-3.224-.311-2-.606-4.1T3727.2,400.438Zm-1.2-6.461q-.669-5.416-1.4-10.788t-1.495-10.908q-2.2,5.735-4.423,11.193t-4.409,11.085a31.759,31.759,0,0,0,5.9.367A23.548,23.548,0,0,0,3726,393.977Z" transform="translate(-176.618 -16.803)" fill="#484444"/>
      <path id="Caminho_159" data-name="Caminho 159" d="M3775.56,389.147a1.663,1.663,0,0,0-.32.626,1.98,1.98,0,0,1-.2.527,19.416,19.416,0,0,0-2.168,4.118q-.819,2.162-1.637,4.267a1.318,1.318,0,0,1-.4.946,3.761,3.761,0,0,0-1.227,1.8,18.314,18.314,0,0,1-.7,1.953c-.174.35-.322.645-.45.887s-.275.5-.44.78a2.408,2.408,0,0,1-2.808,1.19,2.282,2.282,0,0,1-1.863-2.533l.051-.648a2.059,2.059,0,0,1-1-1.056q-.273-.672-.538-1.453-.586-2.216-1.117-4.429a43.273,43.273,0,0,0-1.334-4.447,13.493,13.493,0,0,1-.839-2.454,21.92,21.92,0,0,0-.73-2.445,3.224,3.224,0,0,1-.277-.618,3.414,3.414,0,0,0-.277-.619c-.106.426-.21.816-.308,1.169a6.139,6.139,0,0,0-.2,1.179q-.854,3.95-1.588,7.8t-1.472,7.7a10.1,10.1,0,0,0-.344,2.307,17.044,17.044,0,0,1-.235,2.316,3.881,3.881,0,0,0-.354,1.057,4.019,4.019,0,0,1-.354,1.058,2.212,2.212,0,0,1-1.8,1.541,2.66,2.66,0,0,1-2.273-.775,1.765,1.765,0,0,0-1.019-.84,2.141,2.141,0,0,1-1.541-2.509q.384-2.139.761-4.173t.762-4.173q.71-3.526,1.368-7.056t1.267-7.174q.827-3.624,1.434-7.214a41.325,41.325,0,0,1,1.858-7.072,2.826,2.826,0,0,0,.168-2.158,1.985,1.985,0,0,1-.127-.444,2.121,2.121,0,0,1-.012-.544,1.386,1.386,0,0,1,1.1-1.542,1.338,1.338,0,0,1,1.692.567,2.959,2.959,0,0,0,.688.922,11.14,11.14,0,0,0,.92.723l.2.233a3.793,3.793,0,0,0,1.923,1.778,1.185,1.185,0,0,1,.389.574l.273.673a5.238,5.238,0,0,1-.353,3.12,2.675,2.675,0,0,0-.085,1.079q.85,3,1.755,6t1.747,6.108c.116.372.264.78.446,1.229a7.507,7.507,0,0,1,.421,1.553,3.423,3.423,0,0,1,.245-.362.676.676,0,0,0,.138-.368q1.331-3.152,2.823-6.238t3.138-6.1q1.4-2.712,2.7-5.324t2.7-5.324a6.058,6.058,0,0,1,.7-1.356,6.2,6.2,0,0,0,.7-1.356,2.085,2.085,0,0,1,1.146-.778,1.1,1.1,0,0,1,1.162.416q.6.593,1.206,1.235a2.414,2.414,0,0,1,.632,1.623.963.963,0,0,1,.145.228.785.785,0,0,0,.145.229,3.016,3.016,0,0,1,1.01,1.653,6.781,6.781,0,0,1,.122,1.908,19.386,19.386,0,0,1-.141,2.486,18.557,18.557,0,0,0-.141,2.485q-.039,1.845.032,3.748t.131,3.863q.235,3.926.465,7.906t.557,8.13q.063,1.958.289,3.93t.28,4.038q.161,2.076.438,4.1t.437,4.1a2.776,2.776,0,0,1-.4,1.6,2.2,2.2,0,0,1-1.325.982,3.112,3.112,0,0,1-1.618-.128,2.414,2.414,0,0,1-1.218-1.072,1.878,1.878,0,0,1-.12-.552,2.065,2.065,0,0,0-.119-.553.784.784,0,0,1-.146-.228.9.9,0,0,0-.145-.228,2.2,2.2,0,0,1-1.471-1.309,10.757,10.757,0,0,1-.458-1.772q-.224-1.32-.382-2.744t-.274-2.735q-.178-3.27-.521-6.5t-.962-6.425q-.124-1.2-.253-2.3t-.263-2.192A.311.311,0,0,1,3775.56,389.147Z" transform="translate(-183.368 -18.233)" fill="#484444"/>
      <path id="Caminho_160" data-name="Caminho 160" d="M3854.194,391.461a1.639,1.639,0,0,0-.269.65,2.015,2.015,0,0,1-.161.541,19.324,19.324,0,0,0-1.834,4.277q-.647,2.22-1.292,4.384a1.323,1.323,0,0,1-.324.975,3.76,3.76,0,0,0-1.079,1.9,18.526,18.526,0,0,1-.539,2q-.217.542-.377.92t-.377.812a2.408,2.408,0,0,1-2.7,1.41q-1.841-.213-2.059-2.377V406.3a2.064,2.064,0,0,1-1.083-.972q-.324-.649-.651-1.407-.76-2.162-1.467-4.326a42.872,42.872,0,0,0-1.683-4.326,13.463,13.463,0,0,1-1.031-2.38,22.091,22.091,0,0,0-.923-2.379,3.169,3.169,0,0,1-.326-.595,3.4,3.4,0,0,0-.325-.595c-.072.433-.144.83-.215,1.19a6.055,6.055,0,0,0-.107,1.19q-.537,4.006-.963,7.9t-.854,7.792a10.157,10.157,0,0,0-.159,2.327,17.267,17.267,0,0,1-.051,2.327,3.921,3.921,0,0,0-.269,1.082,4.038,4.038,0,0,1-.269,1.083,2.209,2.209,0,0,1-1.675,1.679,2.659,2.659,0,0,1-2.327-.592,1.771,1.771,0,0,0-1.083-.756,2.142,2.142,0,0,1-1.735-2.378q.212-2.163.428-4.22t.427-4.221q.426-3.572.8-7.144t.694-7.251q.535-3.678.855-7.305a41.326,41.326,0,0,1,1.289-7.2,2.824,2.824,0,0,0,0-2.164,1.989,1.989,0,0,1-.163-.433,2.163,2.163,0,0,1-.056-.541,1.387,1.387,0,0,1,.971-1.625,1.34,1.34,0,0,1,1.732.431,2.959,2.959,0,0,0,.758.864,11.175,11.175,0,0,0,.975.648l.217.216a3.791,3.791,0,0,0,2.058,1.621,1.187,1.187,0,0,1,.434.54l.325.649a5.235,5.235,0,0,1-.1,3.138,2.7,2.7,0,0,0,0,1.082q1.085,2.92,2.227,5.84t2.226,5.948c.145.362.326.757.542,1.19a7.43,7.43,0,0,1,.543,1.514,3.312,3.312,0,0,1,.216-.379.665.665,0,0,0,.107-.379q1.076-3.248,2.318-6.441t2.643-6.334q1.185-2.815,2.265-5.522t2.265-5.521a6.054,6.054,0,0,1,.593-1.408,6.168,6.168,0,0,0,.593-1.407,2.084,2.084,0,0,1,1.08-.867,1.1,1.1,0,0,1,1.191.323q.65.541,1.3,1.134a2.4,2.4,0,0,1,.759,1.568.968.968,0,0,1,.164.216.807.807,0,0,0,.162.216,3.011,3.011,0,0,1,1.138,1.568,6.718,6.718,0,0,1,.274,1.893,19.122,19.122,0,0,1,.057,2.488,18.455,18.455,0,0,0,.057,2.489q.109,1.841.33,3.733t.438,3.841q.546,3.9,1.093,7.844t1.2,8.06q.22,1.948.6,3.895t.6,4q.327,2.057.763,4.057t.764,4.057a2.789,2.789,0,0,1-.27,1.623,2.185,2.185,0,0,1-1.242,1.084,3.1,3.1,0,0,1-1.623,0,2.411,2.411,0,0,1-1.3-.972,1.88,1.88,0,0,1-.164-.54,2,2,0,0,0-.163-.541.814.814,0,0,1-.164-.216.9.9,0,0,0-.162-.216,2.2,2.2,0,0,1-1.571-1.188,10.717,10.717,0,0,1-.6-1.731q-.327-1.3-.6-2.7c-.182-.936-.346-1.84-.491-2.7q-.438-3.246-1.037-6.437t-1.47-6.328q-.22-1.189-.435-2.272t-.437-2.163A.307.307,0,0,1,3854.194,391.461Z" transform="translate(-196.296 -18.575)" fill="#484444"/>
      <path id="Caminho_161" data-name="Caminho 161" d="M3895.432,407.4a8.318,8.318,0,0,0,.446-.73,2.577,2.577,0,0,1,.351-.507,19,19,0,0,0,1.313-2.675,19.9,19.9,0,0,0,.868-2.866,12.774,12.774,0,0,0,.759-3.837q.015-1.626.09-3.2t.2-3.1q-.021-2.275-.093-4.547t-.2-4.541q-.224-2.045-.5-4.036t-.492-3.929l-.244-4.321a2.5,2.5,0,0,1,.9-2.272,3.075,3.075,0,0,1,2.295-.617,3.428,3.428,0,0,1,.774.282,1.766,1.766,0,0,0,.082-.492.856.856,0,0,1,.086-.384,2.31,2.31,0,0,1,2.513-1.551,2.286,2.286,0,0,1,2.276,1.931l.024.433q.2,1.614.346,3.232a32.277,32.277,0,0,0,.452,3.225,27.321,27.321,0,0,1,.375,3.772q.048,1.842.057,3.9a53.986,53.986,0,0,1-.458,6.311q-.419,3.168-1,6.342-.323,1.969-.7,4t-.7,4a3.68,3.68,0,0,1-.57,1.44,10.073,10.073,0,0,0-.623,2.42c-.1.8-.2,1.6-.3,2.4q-.132,1.526-.42,3.113a10.244,10.244,0,0,1-1.075,3.041,6.227,6.227,0,0,1-2.58,2.313,6.146,6.146,0,0,1-6.321-.619,15.786,15.786,0,0,1-3.814-3.253,19.463,19.463,0,0,1-2.675-4.185q-1.111-2.428-2.167-4.809t-2.06-4.815a31.377,31.377,0,0,1-1.464-3.874q-.6-1.97-1.152-4.108-.579-2.568-.94-5.15a24.964,24.964,0,0,1-.185-5.192,28.917,28.917,0,0,1,.208-3.047,11.949,11.949,0,0,1,.753-2.969,3.665,3.665,0,0,1,1.824-2.271.968.968,0,0,0,.611-.685,2.217,2.217,0,0,1,1.795-.86,1.714,1.714,0,0,1,1.376,1.332,3.89,3.89,0,0,1,.159.912c.019.324.038.667.057,1.027a.221.221,0,0,1-.044.164.22.22,0,0,0-.045.165q.122,2.163.078,4.277a24.228,24.228,0,0,0,.294,4.264q.122,2.163.406,4.312t.622,4.3a32.266,32.266,0,0,0,3.032,9.584,23.093,23.093,0,0,0,3.672,5.537,2.779,2.779,0,0,0,.8.659A3.645,3.645,0,0,1,3895.432,407.4Z" transform="translate(-204.82 -18.356)" fill="#484444"/>
      <path id="Caminho_162" data-name="Caminho 162" d="M3941.771,394.475q.02-1.851-.107-3.526t-.214-3.514q-.042-2.388.028-4.791a41.74,41.74,0,0,1,.446-4.946,13.909,13.909,0,0,0,.159-2.575,16.714,16.714,0,0,0-.284-2.636,6.756,6.756,0,0,1,.133-2.3,18.081,18.081,0,0,1,.682-2.25,2.706,2.706,0,0,1,1.636-1.483,3.564,3.564,0,0,1,2.445-.045q2.041.76,1.661,3.3a29.052,29.052,0,0,0-.314,8.2q.36,3.336.545,6.58t.439,6.592q.222,2.046.44,4.089t.333,4.1q.18,2.7.311,5.408a20.652,20.652,0,0,1-.455,5.382c.015.145.033.306.052.485a1.067,1.067,0,0,1-.055.495,2.743,2.743,0,0,1-1.812,2.372,2.708,2.708,0,0,1-2.783-.57,14.854,14.854,0,0,1-1.145-1.02,3.667,3.667,0,0,1-.854-1.377,17.881,17.881,0,0,0-2.314-3.287q-1.365-1.539-2.72-3.027-1.978-2.179-3.732-4.332a37.907,37.907,0,0,1-3.217-4.606q-.656-1.015-1.2-2.048t-1.2-2.047c-.087-.135-.153-.237-.2-.305a3.5,3.5,0,0,1-.208-.414c-.057.153-.1.266-.126.341a.73.73,0,0,0-.019.329q-.02,1.853-.043,3.65t-.042,3.651a28.7,28.7,0,0,0,.753,6.993q.376,1.485.647,2.978a11.326,11.326,0,0,0,.97,2.943q.427.934-.664,1.922a2.273,2.273,0,0,1-1,.325,1.082,1.082,0,0,1-.961-.332,3.058,3.058,0,0,0-1.825-.783,2.153,2.153,0,0,1-2.015-1.524,5.422,5.422,0,0,1-.687-1.83,10.906,10.906,0,0,1-.148-1.889q-.057-1.516-.044-2.933a25.531,25.531,0,0,0-.151-2.923,32.539,32.539,0,0,0-.515-3.264q-.33-1.541-.719-3.133a83.345,83.345,0,0,1-1.287-11.943q-.029-2.283-.164-4.553t-.176-4.661a4.5,4.5,0,0,1,.25-1.715,2.182,2.182,0,0,1,1.193-1.054,1.884,1.884,0,0,0,.557-.387,5.771,5.771,0,0,0,.438-.482,2.393,2.393,0,0,1,2.321-.685,2.088,2.088,0,0,1,1.691,1.559,13.542,13.542,0,0,0,1.37,3.117q.862,1.433,1.681,2.975,1.427,2.131,2.746,4.275t2.735,4.168q1.045,1.63,2.248,3.186t2.452,3.055a9.7,9.7,0,0,0,.861,1.431c.3.4.616.842.958,1.312Z" transform="translate(-211.458 -18.702)" fill="#484444"/>
      <path id="Caminho_163" data-name="Caminho 163" d="M3978.256,405.912a4.325,4.325,0,0,1,.021,1.476,1.4,1.4,0,0,1-.938.974,1.54,1.54,0,0,1-1.363.386,8.975,8.975,0,0,1-1.27-.4,3.01,3.01,0,0,1-1.087.4l-1.122.182a2.188,2.188,0,0,1-2-1.538,1.749,1.749,0,0,1,.312-2.133,5.049,5.049,0,0,0,.839-.9,12,12,0,0,1,.823-1.01.751.751,0,0,0-.1-.312.718.718,0,0,1-.105-.312q-.792-2.173-1.537-4.409t-1.645-4.393a24.7,24.7,0,0,1-.956-3.188q-.376-1.637-.882-3.419-.773-2.725-1.525-5.344t-1.63-5.326q-.545-1.993-.917-3.963c-.251-1.311-.471-2.571-.668-3.783-.115-.711-.2-1.319-.241-1.824s-.08-1.046-.1-1.628l-.124-.089a1.064,1.064,0,0,1-1.582-.292,1.163,1.163,0,0,1-.28-1.051,4.237,4.237,0,0,1,.378-1.048c.07-.012.133-.076.188-.195a.791.791,0,0,1,.277-.32c.179-.248.375-.5.59-.753a2.188,2.188,0,0,0,.449-.95q.182-.906,1.284-.867a1.674,1.674,0,0,0,1.176-.19,22.017,22.017,0,0,1,6.483-1.929,9.1,9.1,0,0,0,1.235.184,9.27,9.27,0,0,1,1.235.183q1.369.328,2.506.58a7.072,7.072,0,0,1,2.238.952,3.182,3.182,0,0,0,.451.42c.124.09.268.195.435.314a21.06,21.06,0,0,0,2.59,1.772q1.33.771,2.679,1.648.992.717,1.861,1.342a11.483,11.483,0,0,1,1.667,1.484,6.209,6.209,0,0,1,1.867,2.054,15.771,15.771,0,0,1,1.047,2.406,19.834,19.834,0,0,1,.462,8.257q-.4,2.26-.687,4.552t-.777,4.675a10.309,10.309,0,0,1-.525,2.168q-.38,1.048-.863,2.113a35.483,35.483,0,0,1-2.264,4.971,11.5,11.5,0,0,1-5.791,6.2,3.947,3.947,0,0,0-1.116.893A9.777,9.777,0,0,1,3978.256,405.912Zm-2.314-7.518c.011.072.087.1.23.072a11.425,11.425,0,0,1,.485-1.065q.251-.477.591-1.082.378-1.048.811-2.1c.287-.7.562-1.369.827-2a6.19,6.19,0,0,0,.558-1.626,6.215,6.215,0,0,1,.559-1.625q.416-1.491.84-2.932a9.832,9.832,0,0,0,.4-2.969q.056-1,.116-1.992t.115-1.992a21.8,21.8,0,0,0-.386-3.391,10.463,10.463,0,0,0-1.1-3.056q-.477-.908-1.069-1.855a7.281,7.281,0,0,0-1.6-1.768,24.174,24.174,0,0,0-2.2-1.4q-1.208-.679-2.627-1.328c-.628-.263-1.23-.494-1.812-.692a5.072,5.072,0,0,0-1.955-.232q-.676-.108-.521,1.181a18.5,18.5,0,0,0,.733,3.17q.577,1.879,1.344,3.892t1.2,3.368q.894,2.815,1.523,5.673t1.2,5.724a49.616,49.616,0,0,1,.983,5.048Q3975.541,395.938,3975.942,398.394Z" transform="translate(-217.918 -17.339)" fill="#484444"/>
      <path id="Caminho_164" data-name="Caminho 164" d="M4034.581,371.6a29.971,29.971,0,0,1-2.471,19.9,23.055,23.055,0,0,1-2.627,4,15.936,15.936,0,0,1-3.467,3.181,15.645,15.645,0,0,1-3.264,1.809,7.626,7.626,0,0,1-3.77.479,7.878,7.878,0,0,1-2.736-.629,8.791,8.791,0,0,1-2.262-1.506,21.223,21.223,0,0,1-4.659-5.2,26.7,26.7,0,0,1-2.915-6.347,24.129,24.129,0,0,1-1.232-10.361,22.452,22.452,0,0,1,.81-4.214q.606-2.065,1.043-4.153a15.12,15.12,0,0,1,2.694-6,10.14,10.14,0,0,1,3.727-3.513,12.129,12.129,0,0,1,5.074-1.367,10.162,10.162,0,0,1,4.24.416,16.173,16.173,0,0,1,3.879,1.822,5.119,5.119,0,0,1,1.119,1.087q.943.794,1.8,1.662t1.713,1.79a8.117,8.117,0,0,1,1.744,2.448q.625,1.359,1.155,2.795Zm-7.458.83a4.823,4.823,0,0,0-.583-2.2,17.572,17.572,0,0,0-1.173-1.85,6.806,6.806,0,0,0-5.2-3.087,10.919,10.919,0,0,0-4.232.91,4.2,4.2,0,0,0-2.174,2.238c-.233.642-.471,1.247-.717,1.815a17.376,17.376,0,0,0-.633,1.685,36.867,36.867,0,0,0-.946,5.129,13.929,13.929,0,0,0,.372,5.067q.513,1.882,1.147,3.793a16.89,16.89,0,0,0,1.654,3.573,13.1,13.1,0,0,0,.991,1.779c.382.581.827,1.189,1.331,1.816a4.893,4.893,0,0,0,4.6,1.335,2.011,2.011,0,0,0,1.667-.746,10.208,10.208,0,0,0,.955-1.478,30.312,30.312,0,0,0,2.037-4.423,22.043,22.043,0,0,0,1.16-4.9A41.1,41.1,0,0,0,4027.123,372.429Z" transform="translate(-225.157 -17.316)" fill="#484444"/>
      <path id="Caminho_165" data-name="Caminho 165" d="M4068.542,391.371l-3.254.37a9.877,9.877,0,0,1-3.28-.182q-1.785-.444-3.636-.929t-3.767-1.008q-1-.419-2.021-.944t-2.048-1.049a2.038,2.038,0,0,1-1.024-1.64,2.555,2.555,0,0,1,.577-1.928q.155-.262.354-.591a3.964,3.964,0,0,0,.327-.7q.078-.576.5-.683a.711.711,0,0,1,.761.367,1.954,1.954,0,0,0,1,.419c.541.087,1.027.172,1.457.248a11.584,11.584,0,0,1,1.246.3,7.427,7.427,0,0,0,2.415.51,16.712,16.712,0,0,1,2.468.274,15.6,15.6,0,0,0,1.811.1,7.066,7.066,0,0,0,1.731-.211,4.163,4.163,0,0,0,.84-.657,1.728,1.728,0,0,0,.289-1.076,8.243,8.243,0,0,0-.435-2.624q-.436-1.285-.96-2.493a5.63,5.63,0,0,0-.447-.445,3.742,3.742,0,0,0-.55-.419q-1.448-.864-2.758-1.653t-2.783-1.757q-2.021-1.389-4.07-2.884t-4.07-2.885a19.554,19.554,0,0,1-1.51-1.351q-.67-.668-1.405-1.377c-.332-.436-.644-.86-.932-1.272s-.557-.809-.8-1.194a15.867,15.867,0,0,1-2.1-4.158,25.9,25.9,0,0,1-1.027-4.317,5.114,5.114,0,0,1,1.153-3.859,7.586,7.586,0,0,1,3.253-2.154,10.07,10.07,0,0,1,3.806-.4,11.433,11.433,0,0,0,1.692.077q.772-.026,1.666-.027a21.218,21.218,0,0,1,2.336-.028q1.127.052,2.283.209a6.787,6.787,0,0,0,1.627.262c.525.018,1.015.043,1.471.077a13.394,13.394,0,0,1,3.517.68q2.468.945,2.233,3.122a2.445,2.445,0,0,1-.93,1.85,3.57,3.57,0,0,1-2.087.8,12.476,12.476,0,0,1-1.535.106,13.22,13.22,0,0,0-1.535.107,9.668,9.668,0,0,0-1.745.159c-.57.106-1.142.194-1.72.263s-1.167.164-1.771.276-1.229.216-1.876.3a4.807,4.807,0,0,0-2.677.894,2.377,2.377,0,0,0-.6.932,1.613,1.613,0,0,0,.315,1.037,6.913,6.913,0,0,0,1.365,1.665,18.456,18.456,0,0,0,1.734,1.351q2.283,1.548,4.661,3.015a27.4,27.4,0,0,1,4.424,3.409q.84.684,1.654,1.482t1.577,1.613a15.845,15.845,0,0,0,1.6,1.495q.841.685,1.681,1.364,1.417,1.209,2.73,2.439a12.976,12.976,0,0,1,2.285,2.886,14.353,14.353,0,0,1,1.552,5.3,3.193,3.193,0,0,1-.249,1.679,8.782,8.782,0,0,1-4.262,4.359,5.7,5.7,0,0,1-1.194.578C4069.456,391.011,4069.013,391.178,4068.542,391.371Z" transform="translate(-231.015 -15.622)" fill="#484444"/>
    </g>
  </g>
</svg>
