<svg xmlns="http://www.w3.org/2000/svg" xmlns:xlink="http://www.w3.org/1999/xlink" width="446" height="416" viewBox="0 0 446 416">
  <defs>
    <clipPath id="clip-path">
      <rect id="Retângulo_30" data-name="Retângulo 30" width="446" height="416" transform="translate(-0.327 -0.172)" fill="#fdc42f"/>
    </clipPath>
  </defs>
  <g id="Grupo_13" data-name="Grupo 13" transform="translate(-848.321 -67.048)">
    <g id="Grupo_12" data-name="Grupo 12" transform="translate(848.648 67.22)" clip-path="url(#clip-path)">
      <path id="Caminho_22" data-name="Caminho 22" d="M1094.047,880.84l-2.165-1.8c-23.826-127.793-33.127-260.227-27.645-393.619,1.146-25.681,3.028-52.779,5.884-84.63q-.58.934-1.165,1.865c-4.441,7.067-9.2,12.228-14.563,15.779-2.436,1.614-5,3.062-7.482,4.463-1.583.893-3.219,1.817-4.779,2.761a388.1,388.1,0,0,0-42.1,29.429l-3.554-2.075q.266-1.613.607-3.06c2.869-15.39,2.914-31.092,2.96-47.656.022-7.77.044-15.805.39-23.749,0-15.4,2.552-29.527,7.591-41.909a9.019,9.019,0,0,0-1.033-1.6c-16.929,10.813-38.937,21.835-61.3,14.757a383.708,383.708,0,0,0-53.826-6.362l-1.287-3.908c6.832-5.563,13.475-11.495,19.747-17.629,8.8-8.613,16.625-17.763,25.662-28.854a148.677,148.677,0,0,1,16.4-16.961,2.5,2.5,0,0,1-.111-.732c-18.192.434-34.458-6.1-46.464-18.739A387.945,387.945,0,0,0,859,224.193l.464-4.006a266.656,266.656,0,0,0,46.305-19.226c3.649-1.938,7.317-4.208,10.865-6.4,5.9-3.652,12-7.425,18.5-10.03,9.162-3.671,19.861-4.115,31.8-1.323,13.794,3.225,26.226,9.893,38.152,16.965q-1.09-1.234-2.18-2.47c-14.2-16.114-28.683-35.468-28.419-56.837.256-20.775.546-44.321-2.012-67.616l3.737-1.808a19.5,19.5,0,0,1,1.51,1.673c13.318,14.561,29.265,25.412,46.115,36.876,5.368,3.652,10.919,7.43,16.423,11.361,10.264,7.894,17.735,19.692,22.725,35.926,3.23-17.947,8.686-35.5,23.009-47.913,8.276-6.815,16.991-12.793,25.42-18.574,9.924-6.806,19.359-13.277,27.984-20.887.912-.887,1.984-1.867,3.239-2.949l1.5.867,2.122,1.084c-.059.457-.14.9-.239,1.34-.755,4.411-1.092,8.955-1.448,13.742-.259,3.479-.526,7.075-.969,10.658,0,7.968.412,16.08.807,23.925.922,18.357,1.871,37.251-2.318,55.524.056.053.108.108.159.166,15.038-14.182,30.645-20.791,45.526-19.18,6.118.008,12.011.569,17.709,1.111,5.634.537,11.46,1.092,17.412,1.092l.2.008c3.348.3,6.624.776,9.791,1.232a95.466,95.466,0,0,0,16.466,1.433,36.272,36.272,0,0,1,8.924-1.106l1.75,3.613c-13.422,16.079-23.254,33.277-33.664,51.486-4.033,7.057-8.2,14.353-12.6,21.571l-.119.176a111.961,111.961,0,0,1-28.368,26.436,2.629,2.629,0,0,1-.141,1.278,3.009,3.009,0,0,1-.3.6c1.56.053,3.114.093,4.652.133,14.583.382,29.663.777,43.469,10.268,13.14,8.132,23.64,18.906,33.794,29.325,7.306,7.5,14.845,15.232,23.349,21.935.656.487,1.267.964,1.816,1.406l-1.3,3.917c-.4.013-.8.019-1.184.019-16.07.3-30.947,3.19-46.676,6.245-9.542,1.853-19.409,3.77-29.493,5.03-28.008,4.484-50.493-13.042-71.119-31.376l-.094-.089a8.589,8.589,0,0,0-.7-.625c2.777,4.562,5.583,9.239,8.177,13.967,10.093,18.4,19.762,39.993,14.944,60.656l-.15.644c-5.223,22.4-10.157,43.55-12.629,65.942l-4.04.952c-4.855-7.525-10.071-14.934-15.5-22.021-5.733-7.477-12.3-14.55-18.641-21.39-6.047-6.517-12.238-13.192-17.84-20.343l-.44.1c-.606-.272-1.912-1.843-3.206-3.739-22.6,160.635-13.262,330.569,27.089,491.954l.141.565c.008.03.011.046.019.076h0l-1.981,2.732c-7.743.55-15.621.55-23.239.55M1071.294,390.5l4.066,1.362c-3.334,35.883-5.47,65.671-6.722,93.743-5.443,132.43,3.722,263.911,27.24,390.825,5.985,0,12.107-.033,18.135-.355-.335-1.18-.716-2.677-1.194-4.57-.578-2.289-1.8-7.338-1.878-8.319l.217-.285c-37.887-159.628-45.705-327.021-22.556-485.163l4.023-.885c6.87,10.51,15.632,19.956,24.107,29.091,6.414,6.914,13.048,14.064,18.907,21.705,4.288,5.592,8.442,11.382,12.395,17.273,2.693-20.588,7.414-40.831,11.993-60.465l.15-.644c4.481-19.217-4.824-39.868-14.516-57.537-3.08-5.614-6.49-11.2-9.787-16.6q-1.427-2.335-2.845-4.671a2.971,2.971,0,0,1,4.82-2.609,14.6,14.6,0,0,0,3.16,2.284,21.586,21.586,0,0,1,4.106,2.97c20.644,18.347,41.342,34.452,67.525,30.267,10.011-1.253,19.8-3.156,29.274-4.995,11.627-2.259,23.549-4.574,35.875-5.682a5.522,5.522,0,0,1-1.376-2.116,3.124,3.124,0,0,1,1.123-3.646,3.366,3.366,0,0,1,.566-.317c-5.07-4.682-9.834-9.57-14.5-14.362-9.969-10.229-20.277-20.807-33.046-28.711-12.819-8.809-26.594-9.17-41.178-9.552-4.709-.124-9.58-.251-14.357-.692l-.97-4.058c1.541-.969,2.841-1.712,3.943-2.276a108.153,108.153,0,0,0,32.073-28.382c4.343-7.137,8.48-14.375,12.482-21.375,8.83-15.447,17.248-30.173,27.823-44.2a7.4,7.4,0,0,1-3.443-.631,3.348,3.348,0,0,1-1.965-2.638c-4.328-.208-8.545-.815-12.694-1.411-3.08-.444-6.265-.9-9.465-1.2-6.126-.006-12.024-.568-17.729-1.111-5.634-.537-11.46-1.092-17.412-1.092l-.243-.014c-18.877-2.105-35.683,10.856-46.869,22.734a12.727,12.727,0,0,1-1.524,1.632l-2.2-1.439-1.4-.765c.4-1.523.791-2.764,1.163-3.773,5.44-19.017,4.46-38.507,3.427-59.07-.4-7.944-.812-16.16-.812-24.283l.017-.273c.44-3.519.706-7.106.964-10.574.123-1.657.248-3.333.393-5.012a6.6,6.6,0,0,1-2.679,1.2,2.907,2.907,0,0,1-2.6-.813c-6.939,5.474-14.246,10.485-21.391,15.386-8.35,5.727-16.984,11.649-25.068,18.306-15.572,13.5-19.977,34.144-22.974,54.3a13.322,13.322,0,0,1-.2,1.319l-1.675.017-2.586.205a40.927,40.927,0,0,1-1.621-6.522c-4.7-17.145-11.98-29.34-22.148-37.162-5.4-3.855-10.931-7.617-16.279-11.257-14.2-9.663-27.774-18.9-39.8-30.329a6.21,6.21,0,0,1-.581,2.677,2.911,2.911,0,0,1-2.848,1.631c1.189,18.55.965,36.8.762,53.308-.245,19.874,13.672,38.385,27.319,53.87q3.926,4.454,7.869,8.894l3.829,4.322-2.781,3.349q-2.616-1.565-5.231-3.154c-13.813-8.355-28.1-17-43.966-20.705-11.043-2.583-20.852-2.2-29.159,1.123-6.149,2.463-12.084,6.136-17.823,9.687-3.609,2.233-7.34,4.542-11.116,6.548A270.9,270.9,0,0,1,865.445,222.9,394.416,394.416,0,0,1,908.7,253.272l.219.2c12.575,13.309,29.533,19.2,49.1,17.091a10.547,10.547,0,0,1,1.71-.194l1.488,3.887c-9.337,7.863-16.064,14.514-21.811,21.567-9.131,11.206-17.046,20.462-26,29.219-5.03,4.92-10.3,9.713-15.707,14.293a388.094,388.094,0,0,1,48.95,6.155l.256.065c21.2,6.778,42.634-4.467,58.938-15.017l1.2-.354c2.684,0,5.507,4.585,5.507,6.608l-.17.848c-5,12.007-7.54,25.8-7.54,41-.344,7.95-.366,15.94-.388,23.665-.035,12.368-.07,25.04-1.434,37.466a3.724,3.724,0,0,1,.859-.209,3.207,3.207,0,0,1,3.388,2.036,4.907,4.907,0,0,1,.346,2.032c10.318-7.728,21.12-15.015,32.239-21.743,1.618-.979,3.284-1.92,4.9-2.83,2.414-1.362,4.91-2.771,7.214-4.3,4.826-3.2,9.165-7.925,13.266-14.452,1.366-2.173,2.711-4.359,4.056-6.544Z" transform="translate(-854.474 -67.163)" fill="#fdc42f"/>
    </g>
  </g>
</svg>
